<svg width="209" height="209" viewBox="0 0 209 209" fill="none" xmlns="http://www.w3.org/2000/svg">
<path d="M161.628 100.418L153.913 98.377L151.096 90.9272C149.341 86.2941 146.892 81.9264 143.81 77.9872C140.767 74.0832 137.163 70.6511 133.115 67.8025C124.726 61.904 114.848 58.7812 104.541 58.7812C94.2337 58.7812 84.3552 61.904 75.9666 67.8025C71.9183 70.6508 68.3143 74.0829 65.2717 77.9872C62.2006 81.906 59.7437 86.2693 57.9853 90.9272L55.1482 98.3974L47.4128 100.418C42.0718 101.859 37.3395 104.987 33.9217 109.337C30.4406 113.78 28.5569 119.266 28.5742 124.91C28.5742 131.666 31.2071 138.034 35.9831 142.81C40.7591 147.586 47.1066 150.219 53.8624 150.219H155.138C161.893 150.219 168.241 147.586 173.017 142.81C175.373 140.464 177.241 137.674 178.513 134.601C179.784 131.529 180.435 128.235 180.426 124.91C180.426 113.44 172.711 103.377 161.628 100.418Z" fill="white" fill-opacity="0.67"/>
<path d="M165.608 85.4573C156.26 60.8019 132.442 43.2695 104.541 43.2695C76.6401 43.2695 52.8215 60.7814 43.4736 85.4369C25.9821 90.0292 13.0625 105.949 13.0625 124.91C13.0625 147.463 31.3296 165.73 53.8624 165.73H155.138C177.67 165.73 195.938 147.463 195.938 124.91C195.938 105.99 183.059 90.07 165.608 85.4573ZM173.017 142.81C170.675 145.166 167.888 147.034 164.819 148.305C161.75 149.577 158.46 150.227 155.138 150.219H53.8624C47.1066 150.219 40.7591 147.586 35.9831 142.81C33.6269 140.464 31.7589 137.674 30.4873 134.601C29.2156 131.529 28.5654 128.235 28.5742 124.91C28.5742 119.195 30.4315 113.827 33.9217 109.337C37.3395 104.987 42.0718 101.859 47.4128 100.418L55.1482 98.3974L57.9853 90.9272C59.7405 86.2737 62.1897 81.9264 65.2717 77.9872C68.3143 74.0829 71.9183 70.6508 75.9666 67.8025C84.3552 61.904 94.2337 58.7812 104.541 58.7812C114.848 58.7812 124.726 61.904 133.115 67.8025C137.177 70.66 140.769 74.0889 143.81 77.9872C146.892 81.9264 149.341 86.2941 151.096 90.9272L153.913 98.377L161.628 100.418C172.711 103.377 180.426 113.44 180.426 124.91C180.426 131.666 177.793 138.034 173.017 142.81Z" fill="white"/>
</svg>
