<svg width="34" height="34" viewBox="0 0 34 34" fill="none" xmlns="http://www.w3.org/2000/svg">
<path d="M17 2.125C8.78555 2.125 2.125 8.78555 2.125 17C2.125 25.2145 8.78555 31.875 17 31.875C25.2145 31.875 31.875 25.2145 31.875 17C31.875 8.78555 25.2145 2.125 17 2.125ZM22.4918 22.6512L20.3004 22.6412L17 18.7066L13.7029 22.6379L11.5082 22.6479C11.3621 22.6479 11.2426 22.5316 11.2426 22.3822C11.2426 22.3191 11.2658 22.2594 11.3057 22.2096L15.6254 17.0631L11.3057 11.9199C11.2655 11.8713 11.2433 11.8103 11.2426 11.7473C11.2426 11.6012 11.3621 11.4816 11.5082 11.4816L13.7029 11.4916L17 15.4262L20.2971 11.4949L22.4885 11.485C22.6346 11.485 22.7541 11.6012 22.7541 11.7506C22.7541 11.8137 22.7309 11.8734 22.691 11.9232L18.3779 17.0664L22.6943 22.2129C22.7342 22.2627 22.7574 22.3225 22.7574 22.3855C22.7574 22.5316 22.6379 22.6512 22.4918 22.6512Z" fill="white"/>
</svg>
