<svg width="235" height="177" viewBox="0 0 235 177" fill="none" xmlns="http://www.w3.org/2000/svg">
<path d="M114.14 168.934L8.55401 106.559C5.19351 104.675 2.30888 101.575 5.58713 99.5494L111.555 38.4901C113.147 37.5038 115.561 36.858 117.177 37.7974L228.015 102.109C231.375 104.058 231.98 109.507 228.602 111.462L128.075 168.822C125.963 170.051 123.566 170.708 121.122 170.728C118.678 170.747 116.271 170.129 114.14 168.934Z" fill="#FF9F9F"/>
<path opacity="0.32" d="M91.3562 101.863L48.4688 126.727L101.925 161.706L148.056 133.026" fill="url(#paint0_linear)"/>
<path d="M192.735 103.923V106.242L191.56 107.675" fill="#ADCEE1"/>
<path d="M146.094 75.6834L191.408 103.765C191.822 104.021 192.162 104.381 192.395 104.809C192.627 105.237 192.745 105.718 192.735 106.205C192.726 106.691 192.59 107.167 192.341 107.586C192.091 108.004 191.737 108.351 191.314 108.591L122.576 147.457C121.615 148.001 120.527 148.282 119.423 148.272C118.318 148.263 117.236 147.964 116.284 147.405L71.1815 120.908C67.9033 118.219 68.15 113.153 71.1815 112.941L139.543 75.5836C140.542 75.0081 141.679 74.7135 142.832 74.7311C143.985 74.7487 145.112 75.0777 146.094 75.6834Z" fill="#88D3D8"/>
<path d="M146.094 73.7519L191.402 101.816C191.816 102.072 192.156 102.432 192.389 102.86C192.622 103.288 192.739 103.769 192.73 104.255C192.72 104.742 192.584 105.218 192.335 105.637C192.085 106.055 191.731 106.401 191.308 106.642L122.57 145.508C121.609 146.051 120.521 146.333 119.417 146.323C118.313 146.314 117.23 146.015 116.278 145.455L71.1756 118.959C70.655 118.646 70.2242 118.203 69.9252 117.675C69.6262 117.146 69.4691 116.549 69.4691 115.941C69.4691 115.334 69.6262 114.737 69.9252 114.208C70.2242 113.68 70.655 113.237 71.1756 112.924L139.531 73.6462C140.532 73.0693 141.671 72.7745 142.827 72.7931C143.983 72.8117 145.111 73.143 146.094 73.7519Z" fill="white"/>
<path d="M144.249 69.9122C144.249 69.9122 125.431 9.24045 125.549 9.24045C125.666 9.24045 124.961 6.54563 121.601 8.06624L49.3911 50.5259C49.3911 50.5259 45.8661 51.9408 46.5711 55.2227C47.2761 58.5047 64.9658 114.609 64.9658 114.609C65.3355 115.142 65.8659 115.544 66.4799 115.755C67.0938 115.966 67.7592 115.976 68.3791 115.783C70.5764 115.102 142.557 73.3174 142.557 73.3174C142.557 73.3174 144.954 72.4074 144.249 69.9122Z" fill="#053855"/>
<path d="M124.35 13.6379L50.4075 56.7199L65.7413 108.174L140.642 66.3778L124.35 13.6379Z" fill="#68E1FD"/>
<path d="M148.878 80.1807L165.446 90.4962C165.74 90.6787 165.981 90.9344 166.146 91.2381C166.311 91.5418 166.395 91.8832 166.388 92.2289C166.382 92.5745 166.285 92.9125 166.109 93.2098C165.932 93.5071 165.682 93.7535 165.381 93.9249L105.92 127.801C105.031 128.311 104.023 128.579 102.998 128.579C101.972 128.579 100.964 128.311 100.075 127.801C96.2501 125.576 89.6701 121.566 85.6458 119.094C85.2867 118.875 84.9908 118.566 84.787 118.197C84.5833 117.829 84.4786 117.414 84.4834 116.994C84.4881 116.573 84.602 116.161 84.814 115.797C85.026 115.434 85.3288 115.131 85.6928 114.92C97.7189 107.927 136.952 85.13 145.541 80.1513C146.048 79.8529 146.626 79.698 147.214 79.7032C147.802 79.7083 148.377 79.8734 148.878 80.1807Z" fill="#68E1FD"/>
<path d="M147.991 108.174L127.217 119.852C126.898 120.03 126.632 120.29 126.446 120.605C126.26 120.919 126.16 121.277 126.157 121.643C126.154 122.008 126.248 122.368 126.429 122.685C126.61 123.003 126.872 123.267 127.188 123.451L139.402 130.596C139.822 130.838 140.298 130.966 140.783 130.966C141.267 130.966 141.744 130.838 142.163 130.596L163.419 118.484C163.678 118.327 163.892 118.106 164.041 117.842C164.189 117.578 164.267 117.28 164.267 116.978C164.267 116.675 164.189 116.377 164.041 116.114C163.892 115.85 163.678 115.629 163.419 115.472L150.711 108.174C150.297 107.939 149.828 107.815 149.351 107.815C148.875 107.815 148.406 107.939 147.991 108.174Z" fill="#68E1FD"/>
<path opacity="0.1" d="M148.878 80.1807L165.446 90.4962C165.74 90.6787 165.981 90.9344 166.146 91.2381C166.311 91.5418 166.395 91.8832 166.388 92.2289C166.382 92.5745 166.285 92.9125 166.109 93.2098C165.932 93.5071 165.682 93.7535 165.381 93.9249L105.92 127.801C105.031 128.311 104.023 128.579 102.998 128.579C101.972 128.579 100.964 128.311 100.075 127.801C96.2501 125.576 89.6701 121.566 85.6458 119.094C85.2867 118.875 84.9908 118.566 84.787 118.197C84.5833 117.829 84.4786 117.414 84.4834 116.994C84.4881 116.573 84.602 116.161 84.814 115.797C85.026 115.434 85.3288 115.131 85.6928 114.92C97.7189 107.927 136.952 85.13 145.541 80.1513C146.048 79.8529 146.626 79.698 147.214 79.7032C147.802 79.7083 148.377 79.8734 148.878 80.1807Z" fill="#053855"/>
<path opacity="0.1" d="M147.991 108.174L127.217 119.852C126.898 120.03 126.632 120.29 126.446 120.605C126.26 120.919 126.16 121.277 126.157 121.643C126.154 122.008 126.248 122.368 126.429 122.685C126.61 123.003 126.872 123.267 127.188 123.451L139.402 130.596C139.822 130.838 140.298 130.966 140.783 130.966C141.267 130.966 141.744 130.838 142.163 130.596L163.419 118.484C163.678 118.327 163.892 118.106 164.041 117.842C164.189 117.578 164.267 117.28 164.267 116.978C164.267 116.675 164.189 116.377 164.041 116.114C163.892 115.85 163.678 115.629 163.419 115.472L150.711 108.174C150.297 107.939 149.828 107.815 149.351 107.815C148.875 107.815 148.406 107.939 147.991 108.174Z" fill="#053855"/>
<path d="M119.979 32.8891L70.6292 60.7944C70.3689 60.9411 70.1523 61.1544 70.0016 61.4123C69.8509 61.6702 69.7715 61.9635 69.7715 62.2621C69.7704 62.557 69.8468 62.847 69.993 63.1031C70.1392 63.3592 70.3501 63.5725 70.6046 63.7217C70.8592 63.8708 71.1484 63.9506 71.4434 63.9531C71.7385 63.9556 72.029 63.8807 72.286 63.7358L121.636 36.0243C121.898 35.8778 122.117 35.664 122.268 35.4049C122.42 35.1458 122.5 34.8509 122.5 34.5507V34.3628C122.501 34.0671 122.425 33.7761 122.278 33.5192C122.132 33.2623 121.92 33.0484 121.665 32.8991C121.41 32.7497 121.119 32.6702 120.823 32.6685C120.528 32.6667 120.236 32.7428 119.979 32.8891Z" fill="#368F99"/>
<path d="M166.386 111.151L140.277 96.0913C130.83 91.641 129.579 77.9849 129.579 77.9849V50.9251C129.579 44.8779 123.874 37.9735 117.829 36.9285C116.548 36.7054 113.934 36.3413 112.706 37.0341L74.2717 58.7219C91.8145 60.2073 91.3974 74.6619 91.3974 74.6619C91.3974 74.6619 91.3974 101.493 91.6676 103.518C92.0506 106.593 93.1966 109.523 95.0014 112.042C96.8062 114.562 99.2126 116.59 102.002 117.943L127.681 133.026L166.386 111.151Z" fill="#FCEE21"/>
<path d="M96.4968 84.1495L112.083 75.067C112.217 74.9703 112.311 74.8272 112.345 74.6655C112.379 74.5038 112.351 74.3352 112.267 74.1927C112.184 74.0502 112.05 73.9441 111.892 73.8952C111.734 73.8462 111.563 73.8579 111.413 73.928L95.8271 83.0105C95.693 83.1072 95.5997 83.2504 95.5657 83.4121C95.5316 83.5738 95.5592 83.7423 95.643 83.8848C95.7267 84.0273 95.8607 84.1334 96.0186 84.1823C96.1766 84.2313 96.3471 84.2196 96.4968 84.1495Z" fill="#F15A24"/>
<path d="M96.4616 87.408L112.048 78.3254C112.182 78.2288 112.275 78.0856 112.309 77.9239C112.343 77.7622 112.316 77.5936 112.232 77.4512C112.148 77.3087 112.014 77.2026 111.856 77.1536C111.699 77.1047 111.528 77.1164 111.378 77.1864L95.7919 86.269C95.6577 86.3656 95.5645 86.5088 95.5305 86.6705C95.4964 86.8322 95.524 87.0008 95.6077 87.1433C95.6915 87.2857 95.8255 87.3918 95.9834 87.4408C96.1413 87.4898 96.3119 87.4781 96.4616 87.408Z" fill="#F15A24"/>
<path d="M96.4616 90.6664L112.048 81.5839C112.182 81.4872 112.275 81.344 112.309 81.1823C112.343 81.0206 112.316 80.852 112.232 80.7096C112.148 80.5671 112.014 80.461 111.856 80.4121C111.699 80.3631 111.528 80.3748 111.378 80.4449L95.7919 89.5274C95.6577 89.6241 95.5645 89.7672 95.5305 89.9289C95.4964 90.0906 95.524 90.2592 95.6077 90.4017C95.6915 90.5442 95.8255 90.6503 95.9834 90.6992C96.1413 90.7482 96.3119 90.7365 96.4616 90.6664Z" fill="#F15A24"/>
<path d="M96.4616 93.919L112.048 84.8364C112.182 84.7398 112.275 84.5966 112.309 84.4349C112.343 84.2732 112.316 84.1046 112.232 83.9622C112.148 83.8197 112.014 83.7136 111.856 83.6646C111.699 83.6157 111.528 83.6274 111.378 83.6975L95.7919 92.78C95.6577 92.8766 95.5645 93.0198 95.5305 93.1815C95.4964 93.3432 95.524 93.5118 95.6077 93.6543C95.6915 93.7967 95.8255 93.9028 95.9834 93.9518C96.1413 94.0008 96.3119 93.9891 96.4616 93.919Z" fill="#F15A24"/>
<path d="M125.295 76.7568C126.688 72.7678 125.801 68.8308 123.314 67.9632C120.826 67.0955 117.68 69.6259 116.287 73.6149C114.894 77.6039 115.781 81.541 118.269 82.4086C120.756 83.2762 123.902 80.7459 125.295 76.7568Z" fill="white"/>
<path d="M120.796 75.1903V66.8651C120.796 66.8651 125.208 65.3738 126.512 71.65L120.796 75.1903Z" fill="#053855"/>
<path d="M120.796 75.1903L124.908 79.0358C124.908 79.0358 126.812 77.5504 126.53 71.6441L120.796 75.1903Z" fill="#FF9F9F"/>
<path d="M127.305 124.079L130.96 126.727L155.194 113.429L142.839 105.655L144.108 112.536L132.963 112.002L133.269 119.253L126.653 119.493L127.305 124.079Z" fill="#FBB03B"/>
<path d="M127.294 124.132L126.653 119.493L133.404 119.306L132.934 111.861L143.685 113.006L142.839 105.655" stroke="#2E3192" stroke-width="1.015" stroke-miterlimit="10"/>
<path d="M133.269 119.992C133.969 119.992 134.538 119.661 134.538 119.253C134.538 118.844 133.969 118.513 133.269 118.513C132.568 118.513 132 118.844 132 119.253C132 119.661 132.568 119.992 133.269 119.992Z" fill="#053855"/>
<path d="M132.963 112.742C133.664 112.742 134.232 112.41 134.232 112.002C134.232 111.593 133.664 111.262 132.963 111.262C132.262 111.262 131.694 111.593 131.694 112.002C131.694 112.41 132.262 112.742 132.963 112.742Z" fill="#053855"/>
<path d="M143.456 113.481C144.157 113.481 144.725 113.15 144.725 112.742C144.725 112.333 144.157 112.002 143.456 112.002C142.755 112.002 142.187 112.333 142.187 112.742C142.187 113.15 142.755 113.481 143.456 113.481Z" fill="#053855"/>
<path d="M142.557 106.489C143.258 106.489 143.826 106.158 143.826 105.749C143.826 105.341 143.258 105.009 142.557 105.009C141.856 105.009 141.288 105.341 141.288 105.749C141.288 106.158 141.856 106.489 142.557 106.489Z" fill="#053855"/>
<path d="M128.075 128.952L157.38 112.389C157.481 112.33 157.554 112.233 157.584 112.12C157.614 112.006 157.597 111.886 157.538 111.785C157.479 111.683 157.382 111.61 157.268 111.58C157.155 111.55 157.034 111.567 156.933 111.626L127.634 128.189C127.533 128.248 127.459 128.345 127.43 128.458C127.4 128.571 127.417 128.692 127.476 128.793C127.535 128.894 127.632 128.968 127.745 128.998C127.859 129.027 127.98 129.011 128.081 128.952H128.075Z" fill="#2E3192"/>
<path d="M127.364 124.965C128.065 124.965 128.633 124.634 128.633 124.226C128.633 123.817 128.065 123.486 127.364 123.486C126.663 123.486 126.095 123.817 126.095 124.226C126.095 124.634 126.663 124.965 127.364 124.965Z" fill="#053855"/>
<path d="M103.476 110.153L114.827 116.857C115.029 116.978 115.272 117.013 115.5 116.955C115.729 116.898 115.925 116.751 116.046 116.549C116.167 116.347 116.202 116.105 116.144 115.876C116.086 115.648 115.94 115.452 115.738 115.331L104.387 108.626C104.186 108.518 103.951 108.493 103.731 108.555C103.512 108.617 103.325 108.762 103.21 108.959C103.095 109.156 103.061 109.39 103.115 109.611C103.169 109.833 103.307 110.025 103.5 110.147L103.476 110.153Z" fill="#2E3192"/>
<path d="M110.526 109.871L118.375 114.509C118.578 114.626 118.819 114.659 119.045 114.599C119.272 114.539 119.465 114.391 119.583 114.189C119.7 113.986 119.733 113.746 119.673 113.519C119.613 113.293 119.465 113.1 119.263 112.982L111.414 108.344C111.212 108.237 110.977 108.211 110.758 108.273C110.538 108.335 110.351 108.48 110.236 108.677C110.121 108.874 110.087 109.108 110.141 109.329C110.196 109.551 110.334 109.743 110.526 109.865V109.871Z" fill="#2E3192"/>
<path d="M116.325 108.644L122 111.996C122.201 112.104 122.437 112.129 122.656 112.067C122.876 112.005 123.063 111.86 123.178 111.663C123.293 111.466 123.326 111.232 123.272 111.011C123.218 110.789 123.08 110.597 122.887 110.475L117.212 107.123C117.011 107.015 116.776 106.99 116.556 107.052C116.337 107.114 116.15 107.259 116.035 107.456C115.92 107.653 115.886 107.887 115.94 108.108C115.994 108.33 116.132 108.522 116.325 108.644Z" fill="#2E3192"/>
<path d="M119.451 102.503L133.11 94.7762" stroke="#DA2E81" stroke-width="1.015" stroke-miterlimit="10"/>
<path d="M121.877 104.205L135.536 96.4788" stroke="#DA2E81" stroke-width="1.015" stroke-miterlimit="10"/>
<path d="M123.569 106.119L137.228 98.3986" stroke="#DA2E81" stroke-width="1.015" stroke-miterlimit="10"/>
<path d="M125.995 107.822L139.655 100.101" stroke="#DA2E81" stroke-width="1.015" stroke-miterlimit="10"/>
<path d="M99.5989 106.283L128.903 89.7212C130.877 88.6057 129.103 85.5586 127.141 86.6799L97.8187 103.242C95.8447 104.358 97.619 107.405 99.5812 106.283H99.5989Z" fill="#A2C609"/>
<path d="M117.13 48.2773L93.2363 61.7807C91.5795 62.7201 93.0659 65.3034 94.7285 64.3346L118.599 50.8312C118.399 49.7509 117.999 48.7 117.13 48.2773Z" fill="white"/>
<path d="M108.975 58.5575L94.7872 66.5774C93.1305 67.5168 94.6169 70.1 96.2795 69.1313L109.792 61.4989C109.764 60.4666 109.483 59.4568 108.975 58.5575Z" fill="#FF9F9F"/>
<path d="M116.478 62.5264C116.419 62.1623 116.219 60.6711 115.679 60.6065H115.597L95.4629 71.9847C93.8061 72.924 95.2925 75.5073 96.9551 74.5386L116.578 63.4481C116.56 63.1252 116.525 62.8199 116.478 62.5264Z" fill="#053855"/>
<path d="M122.564 49.1755C123.33 49.1755 123.951 48.3212 123.951 47.2674C123.951 46.2136 123.33 45.3593 122.564 45.3593C121.798 45.3593 121.178 46.2136 121.178 47.2674C121.178 48.3212 121.798 49.1755 122.564 49.1755Z" fill="white"/>
<path d="M124.403 54.4595C125.169 54.4595 125.79 53.6052 125.79 52.5514C125.79 51.4976 125.169 50.6433 124.403 50.6433C123.637 50.6433 123.017 51.4976 123.017 52.5514C123.017 53.6052 123.637 54.4595 124.403 54.4595Z" fill="#FF9F9F"/>
<path d="M124.709 60.4715C125.474 60.4715 126.095 59.6172 126.095 58.5634C126.095 57.5096 125.474 56.6553 124.709 56.6553C123.943 56.6553 123.322 57.5096 123.322 58.5634C123.322 59.6172 123.943 60.4715 124.709 60.4715Z" fill="#053855"/>
<defs>
<linearGradient id="paint0_linear" x1="84.224" y1="148.168" x2="96.8857" y2="131.644" gradientUnits="userSpaceOnUse">
<stop stop-color="#666666" stop-opacity="0"/>
<stop offset="1" stop-color="#4D4D4D"/>
</linearGradient>
</defs>
</svg>
