<svg width="538" height="405" viewBox="0 0 538 405" fill="none" xmlns="http://www.w3.org/2000/svg">
<path d="M277.608 386.436L519.345 243.742C527.038 239.43 533.642 232.337 526.137 227.702L283.539 87.9901C279.894 85.7332 274.367 84.2555 270.668 86.4049L16.92 233.559C9.22662 238.019 7.84125 250.486 15.575 254.959L245.745 386.208C250.578 389.008 256.059 390.502 261.646 390.542C267.234 390.582 272.735 389.167 277.608 386.436Z" fill="#D9616F"/>
<path d="M391.032 213.959L469.042 260.897C469.042 260.897 326.176 342.924 287.561 365.842L210.519 313.007" fill="url(#paint0_linear)"/>
<path d="M420.191 233.196V238.516L417.488 241.821" fill="#ADCEE1"/>
<path d="M313.062 168.365L417.138 232.847C418.078 233.438 418.849 234.26 419.378 235.236C419.906 236.211 420.174 237.306 420.155 238.415C420.136 239.523 419.831 240.609 419.27 241.565C418.708 242.522 417.909 243.318 416.95 243.876L259.02 333.104C256.813 334.35 254.317 334.995 251.781 334.974C249.246 334.953 246.761 334.266 244.575 332.983L141.01 272.154C133.478 265.975 134.043 254.355 141.01 253.857L298.012 168.123C300.308 166.802 302.92 166.127 305.57 166.169C308.22 166.212 310.809 166.971 313.062 168.365Z" fill="#88D3D8"/>
<path d="M313.062 163.932L417.138 228.414C418.078 229.004 418.849 229.827 419.378 230.802C419.906 231.778 420.174 232.873 420.155 233.981C420.136 235.09 419.831 236.175 419.27 237.132C418.708 238.089 417.909 238.885 416.95 239.443L259.02 328.671C256.813 329.917 254.317 330.562 251.781 330.541C249.246 330.52 246.761 329.833 244.575 328.55L141.01 267.721C139.806 267.008 138.808 265.993 138.115 264.778C137.422 263.562 137.058 262.188 137.058 260.789C137.058 259.391 137.422 258.016 138.115 256.801C138.808 255.586 139.806 254.571 141.01 253.858L298.012 163.69C300.308 162.369 302.92 161.694 305.57 161.736C308.22 161.779 310.809 162.537 313.062 163.932Z" fill="white"/>
<path d="M308.812 155.132C308.812 155.132 265.597 15.7698 265.866 15.7698C266.135 15.7698 264.521 9.57684 256.787 13.0831L90.9354 110.626C90.9354 110.626 82.8654 113.877 84.466 121.373C86.0665 128.869 126.699 257.686 126.699 257.686C127.55 258.909 128.769 259.829 130.179 260.312C131.589 260.795 133.117 260.816 134.54 260.373C139.598 258.801 304.925 162.884 304.925 162.884C304.925 162.884 310.439 160.855 308.812 155.132Z" fill="#053855"/>
<path d="M263.109 25.9258L93.2623 124.826L128.488 242.963L300.527 147.005L263.109 25.9258Z" fill="#68E1FD"/>
<path d="M319.451 178.695L357.501 202.379C358.176 202.798 358.731 203.385 359.111 204.082C359.491 204.779 359.683 205.563 359.668 206.357C359.653 207.151 359.432 207.927 359.026 208.61C358.62 209.293 358.044 209.858 357.353 210.251L220.768 288.02C218.724 289.199 216.404 289.82 214.043 289.82C211.682 289.82 209.363 289.199 207.318 288.02C198.535 282.915 183.418 273.699 174.164 268.03C173.339 267.527 172.659 266.818 172.191 265.973C171.723 265.128 171.482 264.176 171.493 263.211C171.504 262.245 171.766 261.299 172.253 260.465C172.74 259.63 173.436 258.937 174.272 258.452C201.898 242.412 292.013 190.06 311.744 178.628C312.912 177.935 314.248 177.575 315.607 177.587C316.966 177.599 318.295 177.982 319.451 178.695Z" fill="#68E1FD"/>
<path d="M317.42 242.963L269.699 269.763C268.966 270.173 268.355 270.769 267.927 271.491C267.499 272.213 267.27 273.036 267.263 273.875C267.256 274.714 267.472 275.54 267.888 276.269C268.304 276.997 268.906 277.604 269.632 278.025L297.689 294.428C298.652 294.983 299.744 295.275 300.856 295.275C301.968 295.275 303.061 294.983 304.024 294.428L352.847 266.62C353.446 266.262 353.942 265.755 354.287 265.149C354.631 264.543 354.812 263.858 354.812 263.161C354.812 262.463 354.631 261.778 354.287 261.172C353.942 260.566 353.446 260.059 352.847 259.701L323.661 242.949C322.708 242.413 321.632 242.133 320.539 242.135C319.445 242.138 318.371 242.423 317.42 242.963Z" fill="#68E1FD"/>
<path opacity="0.1" d="M319.451 178.695L357.501 202.379C358.176 202.798 358.731 203.385 359.111 204.082C359.491 204.779 359.683 205.563 359.668 206.357C359.653 207.151 359.432 207.927 359.026 208.61C358.62 209.293 358.044 209.858 357.353 210.251L220.768 288.02C218.724 289.199 216.404 289.82 214.043 289.82C211.682 289.82 209.363 289.199 207.318 288.02C198.535 282.915 183.418 273.699 174.164 268.03C173.339 267.527 172.659 266.818 172.191 265.973C171.723 265.128 171.482 264.176 171.493 263.211C171.504 262.245 171.766 261.299 172.253 260.465C172.74 259.63 173.436 258.937 174.272 258.452C201.898 242.412 292.013 190.06 311.744 178.628C312.912 177.935 314.248 177.575 315.607 177.587C316.966 177.599 318.295 177.982 319.451 178.695Z" fill="#053855"/>
<path opacity="0.1" d="M317.42 242.963L269.699 269.763C268.966 270.173 268.355 270.769 267.927 271.491C267.499 272.213 267.27 273.036 267.263 273.875C267.256 274.714 267.472 275.54 267.888 276.269C268.304 276.997 268.906 277.604 269.632 278.025L297.689 294.428C298.652 294.983 299.744 295.275 300.856 295.275C301.968 295.275 303.061 294.983 304.024 294.428L352.847 266.62C353.446 266.262 353.942 265.755 354.287 265.149C354.631 264.543 354.812 263.858 354.812 263.161C354.812 262.463 354.631 261.778 354.287 261.172C353.942 260.566 353.446 260.059 352.847 259.701L323.661 242.949C322.708 242.413 321.632 242.133 320.539 242.135C319.445 242.138 318.371 242.423 317.42 242.963Z" fill="#053855"/>
<path d="M202.503 91.7919C185.597 91.7919 171.568 107.657 169.201 128.265C167.856 127.875 166.592 127.486 165.287 127.069C168.125 104.823 183.74 87.7617 202.503 87.7617C213.263 87.7617 223.028 93.4308 229.901 102.458L226.256 104.272C220.176 96.5743 211.77 91.7919 202.503 91.7919Z" fill="#0071BC"/>
<path d="M229.282 160.237C233.864 152.422 236.244 143.514 236.169 134.458C236.181 128.706 235.245 122.992 233.398 117.544C233.589 117.52 233.778 117.48 233.963 117.424C235.052 117.074 236.155 116.725 237.245 116.349C239.219 122.187 240.219 128.309 240.204 134.471C240.274 144.406 237.598 154.169 232.47 162.682C231.412 161.867 230.349 161.052 229.282 160.237Z" fill="#0071BC"/>
<path d="M169.403 142.048C172.254 161.93 186 177.056 202.503 177.056C208.199 177.01 213.745 175.229 218.401 171.952C219.329 172.946 220.298 173.913 221.306 174.813C215.852 178.842 209.259 181.038 202.476 181.087C183.835 181.087 168.313 164.227 165.314 142.128L169.403 142.048Z" fill="#0071BC"/>
<path d="M228.421 134.444C228.421 116.282 216.801 101.491 202.517 101.491C197.248 101.553 192.176 103.497 188.219 106.972C187.278 106.023 186.323 105.082 185.354 104.151C190.066 99.9001 196.168 97.5118 202.517 97.4341C219.033 97.4341 232.456 114.025 232.456 134.417C232.457 136.666 232.29 138.911 231.959 141.134L228.112 139.509C228.317 137.828 228.421 136.137 228.421 134.444Z" fill="#0071BC"/>
<path d="M196.585 166.524C198.505 167.101 200.498 167.395 202.503 167.397C212.12 167.397 220.513 160.681 224.992 150.766C226.193 151.357 227.408 151.931 228.637 152.486C223.499 163.77 213.72 171.428 202.503 171.428C199.965 171.427 197.442 171.032 195.025 170.259C195.576 169.023 196.074 167.774 196.585 166.524Z" fill="#0071BC"/>
<path d="M184.265 157.738C183.754 159.176 183.202 160.6 182.624 162.01C175.999 154.367 172.427 144.553 172.59 134.444C172.534 126.622 174.632 118.935 178.656 112.225L181.736 114.911C178.339 120.869 176.576 127.616 176.625 134.471C176.51 142.86 179.198 151.047 184.265 157.738Z" fill="#0071BC"/>
<path d="M202.503 113.487C195.953 113.487 190.304 118.471 187.708 125.578C186.363 125.242 185.099 124.893 183.808 124.517C186.942 115.65 194.137 109.417 202.503 109.417C205.041 109.441 207.541 110.033 209.82 111.15C209.443 112.493 209.094 113.837 208.771 115.1C206.848 114.051 204.694 113.497 202.503 113.487Z" fill="#0071BC"/>
<path d="M182.395 130.589C183.74 130.965 185.005 131.314 186.323 131.663C186.22 132.591 186.167 133.524 186.161 134.458C186.161 146.011 193.492 155.414 202.503 155.414H202.732C203.082 156.758 203.445 158.101 203.835 159.377C203.391 159.377 202.947 159.458 202.49 159.458C191.259 159.458 182.113 148.241 182.113 134.471C182.124 133.172 182.219 131.875 182.395 130.589Z" fill="#0071BC"/>
<path d="M214.487 154.595C213.882 153.332 213.277 152.083 212.658 150.833C216.757 146.37 218.973 140.499 218.845 134.444C218.926 129.101 217.233 123.88 214.03 119.6C214.406 118.041 214.783 116.47 215.187 114.925C217.691 117.513 219.66 120.569 220.98 123.919C222.3 127.268 222.946 130.845 222.88 134.444C222.96 138.201 222.254 141.933 220.809 145.403C219.364 148.872 217.211 152.003 214.487 154.595Z" fill="#0071BC"/>
<path d="M229.04 117.76C230.103 118.243 231.138 118.74 232.187 119.237C231.367 118.727 230.546 118.189 229.766 117.612C228.986 117.034 227.83 115.744 228.004 114.683C228.26 113.085 231.031 114.509 233.102 115.798C231.663 114.549 230.479 113.111 231.757 112.561C233.035 112.01 234.326 113.582 235.093 114.119C236.438 115.086 237.783 116.121 239.033 117.222C238.136 116.035 237.335 114.777 236.639 113.461C235.9 112.225 237.742 111.204 238.643 112.117C241.193 114.887 243.939 117.468 246.861 119.842C246.998 119.943 247.112 120.071 247.198 120.218H248.986C249.524 120.218 250.022 120.218 250.52 120.218H250.95C251.131 120.18 251.318 120.188 251.494 120.242C251.671 120.296 251.831 120.394 251.959 120.527C252.193 120.606 252.419 120.709 252.631 120.836C252.7 120.883 252.763 120.937 252.82 120.997C253.411 120.997 254.003 121.105 254.582 121.185C254.776 121.227 254.958 121.311 255.116 121.431C255.273 121.551 255.402 121.705 255.494 121.881C255.585 122.056 255.636 122.25 255.643 122.448C255.651 122.646 255.614 122.843 255.537 123.026L255.779 122.891C257.124 122.072 258.159 124.235 256.841 125.081C254.024 126.802 250.782 127.705 247.48 127.687C247.463 127.835 247.389 127.969 247.273 128.063C247.157 128.156 247.009 128.199 246.861 128.184C243.375 128.093 239.919 127.505 236.599 126.438C236.185 126.323 235.784 126.165 235.402 125.968C233.42 125.153 231.598 123.993 230.022 122.542C229.913 122.438 229.842 122.3 229.821 122.15C229.8 122.001 229.83 121.849 229.906 121.718C229.982 121.588 230.1 121.487 230.241 121.432C230.381 121.376 230.536 121.37 230.681 121.414L231.259 121.588C230.883 121.373 230.506 121.172 230.143 120.943C229.228 120.366 228.139 119.667 227.991 118.512C227.952 118.376 227.956 118.232 228.003 118.098C228.049 117.965 228.136 117.849 228.25 117.767C228.365 117.685 228.503 117.64 228.644 117.638C228.785 117.637 228.924 117.679 229.04 117.76Z" fill="#FCBF81"/>
<path d="M273.829 104.567C273.569 103.945 273.264 103.344 272.914 102.767C272.922 102.798 272.922 102.83 272.914 102.861C272.901 102.905 272.875 102.944 272.841 102.973C272.807 103.003 272.765 103.022 272.72 103.029C272.675 103.037 272.629 103.031 272.587 103.013C272.545 102.995 272.509 102.966 272.484 102.928L271.824 101.921C271.846 102.05 271.846 102.182 271.824 102.311C271.772 102.559 271.629 102.778 271.422 102.925C271.215 103.072 270.96 103.136 270.708 103.103C270.562 103.092 270.42 103.049 270.292 102.977C270.165 102.906 270.055 102.806 269.97 102.687C269.885 102.568 269.828 102.431 269.802 102.287C269.776 102.143 269.782 101.995 269.82 101.854L269.511 101.504C269.527 101.607 269.527 101.711 269.511 101.813C269.467 101.957 269.386 102.087 269.277 102.191C269.168 102.294 269.033 102.368 268.887 102.404C268.741 102.441 268.588 102.439 268.443 102.399C268.298 102.359 268.165 102.282 268.058 102.176C267.937 102.082 267.843 101.961 267.722 101.854C267.629 101.894 267.528 101.915 267.426 101.915C267.325 101.915 267.224 101.894 267.13 101.854C266.267 101.56 265.423 101.215 264.602 100.819C264.658 100.793 264.706 100.755 264.744 100.706C264.782 100.658 264.808 100.601 264.82 100.541C264.831 100.481 264.829 100.419 264.812 100.36C264.795 100.301 264.765 100.246 264.723 100.201C263.755 99.4193 262.73 98.7098 261.656 98.0789H261.522V97.9714C261.266 97.156 261.324 96.2749 261.683 95.4996C261.424 95.1855 261.24 94.8167 261.144 94.4211C261.049 94.0255 261.044 93.6133 261.132 93.2158C261.216 93.2083 261.295 93.1755 261.36 93.1218C261.514 92.9915 261.646 92.8373 261.75 92.665C261.939 92.4278 262.085 92.1596 262.181 91.8724C262.203 91.8016 262.201 91.7257 262.177 91.6557C262.153 91.5857 262.107 91.5252 262.046 91.4829C262.45 90.9455 262.907 90.4484 263.391 89.9917C262.396 88.2794 261.929 86.3123 262.046 84.3361C262.046 84.1454 262.11 83.9602 262.227 83.8095C262.343 83.6587 262.507 83.5511 262.692 83.5034C262.877 83.4557 263.072 83.4707 263.247 83.5461C263.423 83.6214 263.568 83.7528 263.66 83.9196C264.053 84.5424 264.408 85.1884 264.723 85.8541C264.825 85.9218 264.908 86.0142 264.965 86.1228C266.576 89.5882 268.372 92.965 270.345 96.2384C270.695 96.7892 274.985 102.7 274.501 102.834C274.649 103.09 278.159 111.15 273.829 104.567ZM271.286 102.069C271.265 102.094 271.238 102.115 271.208 102.129C271.178 102.143 271.145 102.15 271.112 102.15C271.078 102.15 271.045 102.143 271.015 102.129C270.985 102.115 270.958 102.094 270.937 102.069C270.832 102.146 270.711 102.199 270.583 102.225C270.456 102.251 270.324 102.248 270.197 102.216C270.208 102.366 270.278 102.505 270.391 102.604C270.505 102.702 270.652 102.751 270.802 102.74C270.952 102.73 271.092 102.66 271.19 102.547C271.288 102.433 271.338 102.286 271.327 102.136L271.286 102.069Z" fill="#FCBF81"/>
<path d="M273.371 102.687C272.437 101.946 271.652 101.034 271.058 99.9999C270.943 99.7866 270.786 99.5986 270.597 99.4472C270.407 99.2958 270.189 99.1842 269.956 99.1189C269.722 99.0537 269.478 99.0362 269.237 99.0676C268.997 99.0989 268.765 99.1784 268.556 99.3014C268.492 98.8249 268.461 98.3447 268.462 97.8639C268.462 95.4324 264.629 95.3921 264.669 97.8639C264.591 99.7633 265.103 101.64 266.135 103.237C267.282 104.692 268.681 105.929 270.264 106.891C270.544 107.048 270.858 107.134 271.178 107.141C271.499 107.148 271.816 107.076 272.102 106.931C272.388 106.786 272.633 106.573 272.817 106.311C273.001 106.049 273.118 105.745 273.156 105.427L273.331 105.293C273.667 104.945 273.859 104.482 273.866 103.998C273.874 103.514 273.697 103.045 273.371 102.687Z" fill="#FCBF81"/>
<path d="M294.394 111.768C294.394 111.768 283.324 112.292 280.446 109.645C277.568 106.999 273.412 98.6565 273.412 98.6565C273.412 98.6565 265.785 103.546 265.342 106.368C264.898 109.189 273.358 122.824 277.07 123.737" fill="#4D47C4"/>
<path d="M311.179 248.081C311.179 248.081 301.764 243.93 299.572 243.755C297.379 243.581 293.56 244.36 296.882 248.484C296.882 248.484 306.727 254.919 308.018 255.12C309.31 255.322 312.47 254.341 312.551 254.677C312.632 255.013 312.928 257.498 312.928 257.498C312.928 257.498 321.159 260.628 321.509 255.134C321.509 254.422 320.325 244.212 320.325 244.212" fill="#34323D"/>
<path d="M321.912 223.994C320.285 213.435 317.312 203.199 316.062 192.505C315.281 185.788 314.717 179.071 313.896 172.354C313.076 165.638 310.561 159.136 308.946 152.486C308.904 152.331 308.914 152.167 308.975 152.019C309.036 151.871 309.144 151.747 309.283 151.666C309.202 151.438 309.135 151.196 309.068 150.968C308.234 150.175 307.386 149.423 306.566 148.711L295.066 156.449C295.066 156.449 295.133 163.488 295.496 173.671C296.841 179.609 297.85 184.915 299.357 190.544C299.193 190.722 299.075 190.938 299.014 191.172C298.953 191.406 298.951 191.652 299.007 191.887C302.748 209.63 305.474 227.57 307.171 245.623C307.194 245.921 307.303 246.206 307.484 246.444C307.666 246.683 307.912 246.864 308.193 246.966L308.516 249.747C318.523 253.602 320.715 246.885 320.715 246.885C320.715 246.885 321.173 241.162 321.737 233.21C321.926 230.106 321.98 227.044 321.912 223.994Z" fill="#34323D"/>
<path d="M290.708 263.449L285.153 265.437C284.989 265.943 284.695 266.398 284.301 266.756C283.907 267.114 283.427 267.363 282.907 267.479C282.71 267.714 282.432 267.868 282.127 267.909C279.872 268.068 277.611 267.7 275.523 266.835C272.833 266.002 262.463 262.025 265.355 269.521C267.251 270.865 269.39 272.007 271.313 273.189C272.403 273.847 273.506 274.532 274.622 275.123C275.214 275.527 275.868 275.831 276.559 276.023C278.052 276.252 281.683 275.123 281.777 275.513C281.872 275.902 282.208 278.764 282.208 278.764C282.208 278.764 291.623 282.364 292.08 276.077C292.134 275.177 290.708 263.449 290.708 263.449Z" fill="#34323D"/>
<path d="M298.59 206.637C299.747 187.964 300.392 169.184 304.333 150.82C304.508 146.051 307.601 149.1 307.386 147.206C305.705 131.851 283.297 150.121 283.297 150.121C282.396 150.86 282.275 155.576 282.1 156.637C281.087 162.539 280.222 168.459 279.504 174.396C275.792 204.394 277.164 234.231 278.684 264.322C283.445 269.185 286.566 270.636 294.232 267.493C295.765 247.799 297.218 228.105 298.482 208.384L298.59 206.637Z" fill="#34323D"/>
<path d="M286.485 113.837C286.7 112.87 289.175 112.211 289.955 111.808C291.69 110.868 290.681 109.229 292.376 108.208C294.866 106.76 297.46 105.498 300.137 104.433H300.204C304.454 104.433 311.583 104.191 312.013 109.807C312.672 118.539 311.905 127.271 311.233 135.949C310.964 139.442 310.655 142.908 310.345 146.32C310.238 147.569 310.076 157.645 309.323 157.954C300.89 161.446 290.103 160.21 281.845 156.946C282.275 142.478 283.826 128.065 286.485 113.837Z" fill="#695DD8"/>
<path d="M294.125 122.622C293.871 125.528 292.73 128.285 290.856 130.522C288.982 132.759 286.466 134.367 283.647 135.129C283.647 135.707 283.472 139.253 283.405 139.831C290.13 138.219 295.106 129.769 295.806 122.622C295.9 121.548 294.232 121.548 294.125 122.622Z" fill="#34323D"/>
<path d="M298.24 86.7809C297.689 86.9287 292.968 97.7563 294.824 104.325C296.68 110.895 307.857 104.137 310.668 99.1266C313.479 94.1158 308.812 84.0404 298.24 86.7809Z" fill="#FCBF81"/>
<path d="M298.388 88.3126C298.395 89.3177 298.693 90.2993 299.247 91.1386C299.801 91.9778 300.587 92.6387 301.509 93.0413C304.642 94.1966 307.238 94.9758 307.077 96.4266C306.916 97.8775 301.414 96.2251 301.401 99.5298C301.402 101.759 301.705 103.978 302.302 106.126C302.652 107.751 312.04 102.781 315.134 94.2906C318.227 85.8004 310.48 83.5436 310.103 83.5436C309.727 83.5436 309.027 81.1792 305.221 80.3598C301.414 79.5403 300.352 81.0046 300.352 81.0046C299.487 80.4846 298.476 80.2621 297.472 80.3713C296.469 80.4805 295.529 80.9153 294.797 81.6091C291.287 84.3899 292.188 89.4679 296.142 91.5233L298.388 88.3126Z" fill="#34323D"/>
<path d="M294.138 107.241C294.138 107.241 274.797 118.31 267.83 118.324C262.8 118.324 252.847 116.698 247.655 115.785C242.867 119.815 242.544 126.935 245.516 132.375C253.963 133.719 278.98 137.346 286.821 133.464C296.317 128.762 306.768 122.461 306.768 122.461C306.768 122.461 316.263 113.205 294.138 107.241Z" fill="#695DD8"/>
<defs>
<linearGradient id="paint0_linear" x1="358.133" y1="316.15" x2="321.921" y2="258.413" gradientUnits="userSpaceOnUse">
<stop offset="0.01" stop-color="#D9616F"/>
<stop offset="1" stop-color="#A33F6F"/>
</linearGradient>
</defs>
</svg>
