<svg width="317" height="239" viewBox="0 0 317 239" fill="none" xmlns="http://www.w3.org/2000/svg">
<path d="M16.904 132.279L140.708 61.7947C143.731 60.0747 147.151 59.179 150.628 59.197C154.105 59.2151 157.517 60.1464 160.521 61.8977L288.113 136.219C289.788 137.193 291.176 138.59 292.139 140.27C293.103 141.95 293.607 143.855 293.601 145.792C293.596 147.729 293.08 149.63 292.107 151.305C291.134 152.98 289.738 154.369 288.058 155.333L168.985 223.724C164.951 226.044 160.379 227.264 155.726 227.264C151.073 227.264 146.502 226.044 142.468 223.724L16.8644 151.44C15.1782 150.471 13.778 149.074 12.8055 147.389C11.8331 145.705 11.3231 143.793 11.3271 141.848C11.3311 139.903 11.8491 137.993 12.8285 136.313C13.8078 134.633 15.2138 133.241 16.904 132.279Z" fill="#E5E1E1"/>
<path opacity="0.32" d="M114.54 204.088L121.157 199.609L169.104 159.97L157.755 155.095C150.947 156.918 138.735 162.23 132.395 165.123C123.036 169.436 113.557 173.344 103.968 177.118C98.6583 179.232 93.3406 181.314 88.015 183.365C97.5567 189.374 106.116 196.636 114.54 204.088Z" fill="url(#paint0_linear)"/>
<path d="M64.5016 91.9594V91.8484" stroke="#61587D" stroke-width="1.015"/>
<path d="M61.5614 91.9594V91.8484" stroke="#61587D" stroke-width="1.015"/>
<path d="M55.689 91.8484V91.9594" stroke="#61587D" stroke-width="1.015"/>
<path d="M58.6292 91.9594V91.8484" stroke="#61587D" stroke-width="1.015"/>
<path d="M52.7488 91.8484V91.9594" stroke="#61587D" stroke-width="1.015"/>
<path d="M162.994 165.218L153.412 160.985V87.7894L165.997 83.2944" fill="#7F1D18"/>
<path d="M168.993 73.7812V159.931L162.993 165.218V82.24" fill="#AA3529"/>
<path d="M112.131 91.6977V59.8208C112.131 59.8208 111.291 54.1605 121.356 49.1264C131.42 44.0924 164.753 24.5905 164.753 24.5905C164.753 24.5905 181.102 21.6573 189.907 45.559C191.449 49.5814 192.436 53.7954 192.839 58.0846V83.0963L144.409 109.939L112.131 91.6977Z" fill="#68E1FD"/>
<path d="M114.001 89.3751V59.4008C114.001 59.4008 115.047 51.0134 123.646 53.9466C132.245 56.8798 141.255 68.4145 143.141 79.1088V106.158L115.047 89.8032" fill="#E98669"/>
<path d="M156.138 33.5012C156.138 32.7482 155.528 32.1377 154.775 32.1377C154.022 32.1377 153.412 32.7482 153.412 33.5012V87.3932C153.412 88.1462 154.022 88.7567 154.775 88.7567C155.528 88.7567 156.138 88.1462 156.138 87.3932V33.5012Z" fill="#AA3529"/>
<path d="M156.122 32.1376C156.122 32.1376 174.778 30.2508 176.038 30.4569C177.298 30.663 156.122 50.8071 156.122 50.8071" fill="#AA3529"/>
<path d="M113.549 92.2368L94.6799 115.092C94.6799 115.092 86.0813 128.307 100.132 135.855C114.183 143.402 127.386 127.673 127.386 127.673L143.53 109.194L113.549 92.2368Z" fill="#F9B246"/>
<path d="M111.901 91.6978L93.0316 114.553C93.0316 114.553 84.4329 127.768 98.484 135.315C112.535 142.863 125.738 127.134 125.738 127.134L141.857 108.687L111.901 91.6978Z" fill="#FFD7CB"/>
<path d="M139.48 69.0088C135.628 61.9294 129.518 55.8489 123.63 53.8274C115.047 50.8942 114.001 59.2499 114.001 59.2499V89.3748C123.511 81.7484 128.084 78.4981 139.48 69.0088Z" fill="#CD725F"/>
<path d="M183.99 75.5235C187.282 68.8485 185.633 61.3064 180.306 58.6777C174.98 56.049 167.993 59.3291 164.701 66.004C161.409 72.679 163.058 80.2211 168.385 82.8498C173.711 85.4785 180.698 82.1984 183.99 75.5235Z" fill="#FFD7CB"/>
<path d="M178.511 63.3803C179.097 63.8328 179.564 64.4218 179.871 65.0961C180.177 65.7704 180.314 66.5095 180.27 67.249C180.307 68.6448 179.991 70.0273 179.351 71.2683C178.883 72.3547 178.038 73.2357 176.973 73.7497C176.739 73.8912 176.459 73.938 176.191 73.8806C175.923 73.8231 175.687 73.6658 175.531 73.4405C175.229 74.1335 174.689 74.6958 174.009 75.026C173.721 75.1708 173.394 75.2166 173.077 75.1564C172.761 75.0962 172.473 74.9334 172.258 74.693C171.691 73.995 171.408 73.1091 171.465 72.2117C171.423 71.0925 171.677 69.982 172.202 68.9931C172.599 68.148 173.277 67.467 174.12 67.0667C174.33 66.9666 174.562 66.9201 174.794 66.9312C175.026 66.9422 175.252 67.0106 175.452 67.1301L175.547 66.6306L177.132 65.9806L176.783 70.8006C176.783 71.1256 176.783 71.411 176.783 71.6488C176.783 71.8867 176.902 72.0373 177.124 71.9422C177.654 71.6167 178.053 71.1141 178.249 70.5231C178.613 69.7118 178.784 68.8272 178.748 67.9387C178.789 67.3829 178.692 66.8256 178.465 66.3166C178.238 65.8076 177.889 65.3626 177.449 65.0213C177.002 64.7382 176.488 64.5774 175.96 64.5551C175.431 64.5329 174.906 64.6499 174.437 64.8945C173.075 65.5141 171.959 66.5717 171.267 67.8991C170.428 69.312 170.005 70.9334 170.047 72.5764C170.019 73.2124 170.123 73.8473 170.35 74.4419C170.578 75.0364 170.925 75.5779 171.37 76.0328C172.218 76.8256 173.383 76.9048 174.873 76.2865C176.227 75.6567 177.432 74.746 178.408 73.6149L178.994 75.0815C177.865 76.3567 176.476 77.3757 174.921 78.0702C172.971 78.863 171.41 78.7837 170.229 77.7927C169.048 76.8018 168.43 75.2876 168.382 73.2502C168.336 71.1063 168.918 68.9956 170.055 67.1777C171.023 65.4288 172.529 64.0389 174.35 63.2138C175.998 62.5268 177.385 62.5823 178.511 63.3803ZM175.063 71.8787C175.326 71.3299 175.456 70.7271 175.444 70.1188C175.46 69.9334 175.435 69.7467 175.372 69.5716C175.309 69.3964 175.209 69.237 175.079 69.1041C174.974 69.0074 174.842 68.9451 174.7 68.9253C174.559 68.9054 174.414 68.9291 174.287 68.9931C173.915 69.1914 173.632 69.5226 173.494 69.9206C173.271 70.4405 173.168 71.0042 173.193 71.5696C173.183 71.978 173.279 72.3821 173.47 72.7428C173.495 72.8021 173.532 72.8557 173.578 72.9004C173.624 72.9451 173.679 72.98 173.739 73.0029C173.799 73.0259 173.863 73.0365 173.927 73.034C173.991 73.0315 174.054 73.0161 174.112 72.9886C174.565 72.7543 174.913 72.3581 175.087 71.8787" fill="#AA3529"/>
<path d="M211.716 112.508L190.763 101.385L275.029 82.1292L212.144 115.076L211.716 112.508Z" fill="#68E1FD"/>
<path d="M212.144 115.076L216.852 131.764L275.029 82.1292L212.144 115.076Z" fill="#5C5196"/>
<path d="M221.987 120.213L244.653 131.764L275.029 82.1292L221.987 120.213Z" fill="#68E1FD"/>
<path d="M221.987 120.213L216.852 131.764L227.249 122.893L221.987 120.213Z" fill="#231069"/>
<path d="M187.474 139.81C165.87 145.209 139.385 141.832 126.649 121.331C116.767 105.436 120.785 83.3182 134.828 71.292C136.413 69.9602 134.131 67.7325 132.585 69.0485C117.48 81.9864 113.351 105.888 123.868 122.956C137.34 144.718 165.268 148.642 188.274 142.894C190.295 142.371 189.455 139.319 187.474 139.81Z" fill="#24116A"/>
<path d="M203.926 133.984L197.063 137.155C195.217 138.011 196.825 140.746 198.648 139.89L205.511 136.719C207.373 135.863 205.765 133.128 203.926 133.984Z" fill="#24116A"/>
<path d="M86.9769 149.466L86.1843 149.07C85.7326 148.84 85.3284 149.53 85.7881 149.752L86.5806 150.148C87.0323 150.378 87.4365 149.688 86.9769 149.466Z" fill="#FA4E76"/>
<path style="mix-blend-mode:multiply" d="M52.1069 134.372L24.1713 147.944C28.2816 150.693 32.6222 153.08 37.1445 155.079L62.0845 137.868" fill="url(#paint1_linear)"/>
<path d="M48.6357 123.036C48.6357 123.036 47.4628 136.941 54.8806 139.39C62.2984 141.84 65.9756 134.737 65.7141 122.497" fill="#68E1FD"/>
<path d="M57.3262 127.695C62.0421 127.545 65.7948 125.214 65.7082 122.488C65.6216 119.761 61.7285 117.673 57.0126 117.823C52.2967 117.972 48.544 120.304 48.6306 123.03C48.7172 125.757 52.6103 127.845 57.3262 127.695Z" fill="#F2696A"/>
<path d="M59.0095 111.715C59.0095 111.715 55.5067 106.958 56.8619 103.589C56.8619 103.589 58.0031 101.401 59.699 101.005C59.699 101.005 59.699 105.595 61.3633 104.969C63.0275 104.342 61.2127 100.165 61.2127 100.165C61.2127 100.165 62.9324 97.6753 64.8978 97.6911C66.8632 97.707 65.0325 101.98 66.3798 101.243C67.727 100.505 66.3322 96.9539 67.8538 96.4861C69.2505 96.1273 70.6696 95.8624 72.1016 95.6934C72.1016 95.6934 73.6866 99.8316 72.2522 100.45C70.8178 101.068 68.6939 101.37 69.7479 102.257C70.8019 103.145 73.7104 101.996 73.7104 101.996C73.7104 101.996 73.964 104.374 73.013 105.397C72.062 106.419 66.1816 104.382 67.2674 106.372C68.3531 108.362 72.1175 107.204 72.1175 107.204C71.0176 108.861 69.6139 110.295 67.9806 111.43C65.7141 112.777 59.0095 111.715 59.0095 111.715Z" fill="#8CCC00"/>
<path d="M60.1825 123.797C60.1825 123.797 57.6861 121.482 58.0982 119.413C58.3173 118.681 58.7929 118.054 59.4375 117.645C59.4375 117.645 59.913 120.253 60.8006 119.714C61.6882 119.175 60.1983 117.003 60.1983 117.003C60.1983 117.003 60.9036 115.417 62.029 115.203C63.1543 114.989 62.5679 117.621 63.2494 117.058C63.931 116.495 62.766 114.632 63.5744 114.196C64.327 113.838 65.1027 113.531 65.8964 113.277C65.8964 113.277 67.2357 115.457 66.4908 115.98C65.7458 116.503 64.565 116.884 65.2624 117.272C65.9598 117.661 67.4655 116.701 67.4655 116.701C67.6902 117.351 67.6902 118.057 67.4655 118.707C67.0376 119.405 63.503 118.858 64.2955 119.872C65.088 120.887 67.1723 119.872 67.1723 119.872C66.7231 120.93 66.0777 121.893 65.2703 122.71C64.0974 123.693 60.1825 123.797 60.1825 123.797Z" fill="#8CCC00"/>
<path d="M51.1162 118.913C51.1162 118.913 45.2438 119.325 43.112 116.36C43.112 116.36 41.8757 114.228 42.4542 112.579C42.4542 112.579 46.3137 115.068 46.6862 113.3C47.0586 111.533 42.5572 110.851 42.5572 110.851C42.5572 110.851 41.3843 108.068 42.4542 106.411C43.5241 104.754 46.1473 108.599 46.2424 107.069C46.3375 105.539 42.5969 104.81 43.0169 103.264C43.4546 101.888 43.9841 100.542 44.6019 99.2368C44.6019 99.2368 48.9448 100.125 48.715 101.679C48.4851 103.232 47.5738 105.175 48.8893 104.762C50.2049 104.35 50.7755 101.314 50.7755 101.314C50.7755 101.314 52.8914 102.36 53.2639 103.692C53.6364 105.024 48.7308 108.909 50.9974 109.059C53.2639 109.21 54.3496 105.381 54.3496 105.381C55.156 107.2 55.6105 109.156 55.689 111.144C55.6176 113.839 51.1162 118.913 51.1162 118.913Z" fill="#8CCC00"/>
<path d="M70.8732 97.5403L69.0426 99.2131C69.0822 98.5471 69.1456 97.8812 69.2248 97.2153C69.2724 96.8665 68.7256 96.7317 68.6859 97.0885C68.575 97.9816 68.4957 98.8748 68.4482 99.768C66.8632 101.266 65.2782 102.836 63.7883 104.525C63.6226 103.402 63.5537 102.266 63.5823 101.132C63.5823 100.775 63.0354 100.791 63.0275 101.132C62.9992 102.443 63.0974 103.755 63.3207 105.048C62.3824 106.116 61.504 107.236 60.6896 108.401C59.694 107.114 58.9957 105.622 58.645 104.033C58.5657 103.684 58.0347 103.851 58.114 104.2C58.4851 105.896 59.2387 107.485 60.3171 108.845L60.3726 108.893C57.9062 112.412 56.5509 116.59 56.4814 120.887C56.4814 121.244 57.0362 121.228 57.0362 120.887C57.1053 116.744 58.4046 112.715 60.7689 109.313C63.0327 109.837 65.3667 109.99 67.6795 109.765C68.0361 109.765 68.0202 109.178 67.6795 109.21C65.4849 109.423 63.2705 109.289 61.1176 108.813C62.244 107.183 63.489 105.639 64.8423 104.192H64.8899C66.1896 104.263 67.4893 104.342 68.7969 104.342C69.6069 104.429 70.4255 104.306 71.1744 103.985C71.4914 103.811 71.1744 103.343 70.8812 103.518C70.0015 104.001 68.7335 103.803 67.7746 103.771C66.9821 103.771 66.1262 103.708 65.302 103.66C67.2198 101.639 69.2645 99.7442 71.2774 97.9367C71.5469 97.683 71.1427 97.3025 70.8732 97.5403Z" fill="#06577A"/>
<path d="M53.993 108.908C54.0047 108.839 53.9896 108.768 53.9506 108.709C53.9115 108.65 53.8516 108.608 53.783 108.592C53.7144 108.576 53.6422 108.587 53.5811 108.622C53.52 108.657 53.4746 108.714 53.4541 108.782C52.919 110.851 51.7257 112.69 50.0543 114.022C49.3674 112.294 48.7361 110.544 48.1602 108.774C49.4588 107.393 50.5122 105.8 51.2747 104.065C51.4174 103.74 50.926 103.47 50.7834 103.803C50.0805 105.397 49.1252 106.866 47.9542 108.155C47.3122 106.126 46.7337 104.081 46.2344 102.004C46.1473 101.655 45.6163 101.821 45.7035 102.17C46.385 105.008 47.2039 107.801 48.1602 110.55C47.105 110.378 46.075 110.077 45.0932 109.654C44.7683 109.511 44.4989 110.002 44.8317 110.145C45.9512 110.639 47.132 110.981 48.3425 111.16C48.9844 112.975 49.6977 114.759 50.4585 116.527C48.7941 116.526 47.1443 116.217 45.5925 115.615C45.2597 115.488 44.9981 115.972 45.331 116.107C47.0475 116.776 48.8779 117.105 50.72 117.074C51.6815 119.273 52.7382 121.434 53.89 123.559C54.0564 123.876 54.5319 123.559 54.3576 123.265C52.8342 120.437 51.469 117.525 50.2683 114.545C52.0987 113.13 53.4086 111.148 53.993 108.908Z" fill="#06577A"/>
<path d="M64.2876 115.782L62.8374 118.398C62.6427 118.151 62.4728 117.885 62.3302 117.605C62.1637 117.288 61.6961 117.605 61.8626 117.898C62.049 118.253 62.275 118.586 62.5362 118.889L60.9512 121.72C60.7584 121.548 60.6298 121.316 60.5866 121.062C60.5312 120.713 59.9764 120.729 60.0319 121.062C60.0962 121.506 60.3288 121.909 60.6817 122.187L58.7163 125.731C58.6817 125.796 58.6743 125.872 58.6958 125.943C58.7174 126.014 58.7661 126.073 58.8313 126.107C58.8964 126.142 58.9727 126.15 59.0433 126.128C59.1139 126.106 59.173 126.058 59.2077 125.993L61.7992 121.315C62.2588 121.308 62.714 121.225 63.1464 121.069C63.4793 120.951 63.3208 120.411 62.98 120.538C62.7032 120.635 62.4159 120.699 62.1241 120.729L64.7473 115.972C64.7438 115.92 64.7261 115.871 64.6959 115.829C64.6657 115.787 64.6244 115.754 64.5766 115.734C64.5287 115.714 64.4763 115.708 64.4253 115.717C64.3742 115.725 64.3265 115.748 64.2876 115.782Z" fill="#06577A"/>
<defs>
<linearGradient id="paint0_linear" x1="100.457" y1="198.142" x2="148.03" y2="153.406" gradientUnits="userSpaceOnUse">
<stop stop-opacity="0"/>
<stop offset="0.99" stop-color="#552800"/>
</linearGradient>
<linearGradient id="paint1_linear" x1="65.096" y1="125.033" x2="34.0614" y2="150.289" gradientUnits="userSpaceOnUse">
<stop stop-color="#D4A397"/>
<stop offset="1" stop-color="white"/>
</linearGradient>
</defs>
</svg>
