<svg width="337" height="56" viewBox="0 0 337 56" fill="none" xmlns="http://www.w3.org/2000/svg">
<g clip-path="url(#clip0)">
<path d="M337 0H139.313L121.303 55.3532L318.294 55.6355L337 0Z" fill="black"/>
<path d="M0 55.3133L18.994 0H139.289L121.447 55.3133H0Z" fill="white"/>
<path d="M51.5341 41.0244H45.235L34.6998 25.1687V41.0244H28.4007V15.3184H34.6998L45.235 31.2473V15.3184H51.5341V41.0244ZM62.2887 15.3184V30.6981C62.2887 32.236 62.6696 33.42 63.4309 34.25C64.1923 35.08 65.3097 35.4951 66.7831 35.4951C68.2566 35.4951 69.386 35.08 70.1722 34.25C70.958 33.42 71.3508 32.236 71.3508 30.6981V15.3184H77.6499V30.6614C77.6499 32.9562 77.1585 34.897 76.1765 36.4837C75.194 38.0705 73.868 39.2667 72.1979 40.0723C70.5526 40.8779 68.7107 41.2807 66.6726 41.2807C64.634 41.2807 62.8045 40.8901 61.1837 40.109C59.5873 39.3034 58.3229 38.1072 57.3898 36.5203C56.4562 34.9091 55.9896 32.9562 55.9896 30.6614V15.3184H62.2887ZM88.3722 36.1908H96.6238V41.0244H82.0732V15.3184H88.3722V36.1908ZM105.927 36.1908H114.179V41.0244H99.6282V15.3184H105.927V36.1908Z" fill="black"/>
<path d="M172.379 23.5941C172.379 25.0832 172.035 26.4503 171.348 27.6954C170.66 28.916 169.604 29.9047 168.18 30.6614C166.755 31.4182 164.987 31.7966 162.875 31.7966H158.97V41.0244H152.671V15.3184H162.875C164.938 15.3184 166.682 15.6724 168.106 16.3803C169.53 17.0883 170.599 18.0647 171.311 19.3098C172.023 20.5548 172.379 21.9829 172.379 23.5941ZM162.396 26.8165C163.599 26.8165 164.496 26.5358 165.085 25.9743C165.675 25.4128 165.969 24.6194 165.969 23.5941C165.969 22.5688 165.675 21.7754 165.085 21.2139C164.496 20.6524 163.599 20.3717 162.396 20.3717H158.97V26.8165H162.396ZM187.888 41.2807C185.457 41.2807 183.222 40.7193 181.184 39.5963C179.17 38.4733 177.562 36.911 176.358 34.9092C175.18 32.8829 174.59 30.6126 174.59 28.0982C174.59 25.5837 175.18 23.3256 176.358 21.3238C177.562 19.322 179.17 17.7596 181.184 16.6366C183.222 15.5137 185.457 14.9522 187.888 14.9522C190.319 14.9522 192.542 15.5137 194.556 16.6366C196.594 17.7596 198.19 19.322 199.345 21.3238C200.523 23.3256 201.112 25.5837 201.112 28.0982C201.112 30.6126 200.523 32.8829 199.345 34.9092C198.166 36.911 196.57 38.4733 194.556 39.5963C192.542 40.7193 190.319 41.2807 187.888 41.2807ZM187.888 35.5683C189.951 35.5683 191.597 34.8848 192.824 33.5177C194.077 32.1506 194.703 30.3441 194.703 28.0982C194.703 25.8278 194.077 24.0213 192.824 22.6787C191.597 21.3116 189.951 20.628 187.888 20.628C185.801 20.628 184.131 21.2994 182.878 22.642C181.65 23.9847 181.036 25.8034 181.036 28.0982C181.036 30.3685 181.65 32.1872 182.878 33.5543C184.131 34.897 185.801 35.5683 187.888 35.5683ZM210.916 15.3184V41.0244H204.617V15.3184H210.916ZM238.615 41.0244H232.316L221.78 25.1687V41.0244H215.481V15.3184H221.78L232.316 31.2473V15.3184H238.615V41.0244ZM261.783 15.3184V20.3351H254.931V41.0244H248.632V20.3351H241.781V15.3184H261.783ZM271.244 20.3351V25.5349H279.679V30.3685H271.244V36.0077H280.784V41.0244H264.945V15.3184H280.784V20.3351H271.244ZM298.062 41.0244L292.683 31.3206H291.173V41.0244H284.874V15.3184H295.446C297.484 15.3184 299.216 15.6724 300.64 16.3803C302.089 17.0883 303.17 18.0647 303.882 19.3098C304.594 20.5304 304.95 21.8975 304.95 23.411C304.95 25.1199 304.459 26.6456 303.476 27.9883C302.519 29.331 301.095 30.2831 299.203 30.8445L305.171 41.0244H298.062ZM291.173 26.8898H295.078C296.232 26.8898 297.092 26.609 297.656 26.0475C298.246 25.4861 298.541 24.6927 298.541 23.6674C298.541 22.6909 298.246 21.9219 297.656 21.3604C297.092 20.7989 296.232 20.5182 295.078 20.5182H291.173V26.8898Z" fill="white"/>
</g>
<defs>
<clipPath id="clip0">
<rect width="337" height="55.9705" fill="white"/>
</clipPath>
</defs>
</svg>
