<svg width="73" height="73" viewBox="0 0 73 73" fill="none" xmlns="http://www.w3.org/2000/svg">
<path d="M73 36.5C73 46.1804 69.1545 55.4643 62.3094 62.3094C55.4643 69.1545 46.1804 73 36.5 73C26.8196 73 17.5357 69.1545 10.6906 62.3094C3.84553 55.4643 0 46.1804 0 36.5C0 26.8196 3.84553 17.5357 10.6906 10.6906C17.5357 3.84553 26.8196 0 36.5 0C46.1804 0 55.4643 3.84553 62.3094 10.6906C69.1545 17.5357 73 26.8196 73 36.5ZM38.7812 20.5312C38.7812 19.9262 38.5409 19.346 38.1131 18.9182C37.6853 18.4903 37.105 18.25 36.5 18.25C35.895 18.25 35.3147 18.4903 34.8869 18.9182C34.4591 19.346 34.2188 19.9262 34.2188 20.5312V46.9618L24.4276 37.1661C23.9993 36.7378 23.4183 36.4971 22.8125 36.4971C22.2067 36.4971 21.6257 36.7378 21.1974 37.1661C20.769 37.5945 20.5284 38.1755 20.5284 38.7812C20.5284 39.387 20.769 39.968 21.1974 40.3964L34.8849 54.0839C35.0968 54.2963 35.3485 54.4649 35.6257 54.5799C35.9028 54.6949 36.1999 54.7541 36.5 54.7541C36.8001 54.7541 37.0972 54.6949 37.3743 54.5799C37.6515 54.4649 37.9032 54.2963 38.1151 54.0839L51.8026 40.3964C52.231 39.968 52.4716 39.387 52.4716 38.7812C52.4716 38.1755 52.231 37.5945 51.8026 37.1661C51.3743 36.7378 50.7933 36.4971 50.1875 36.4971C49.5817 36.4971 49.0007 36.7378 48.5724 37.1661L38.7812 46.9618V20.5312Z" fill="black"/>
</svg>
