<svg width="499" height="491" viewBox="0 0 499 491" fill="none" xmlns="http://www.w3.org/2000/svg">
<path d="M246.5 191L21.1932 324.904C11.5288 330.648 11.3844 344.589 20.9277 350.532L238.798 486.204C243.533 489.153 249.514 489.23 254.324 486.405L476.769 355.762C486.574 350.004 486.657 335.857 476.92 329.984L246.5 191Z" fill="#6737F0"/>
<path d="M146 402.5V358.5H345V402.5H146Z" fill="url(#paint0_linear)"/>
<rect x="145.766" y="7.21155" width="201.469" height="366.844" rx="31.8281" fill="#68E1FD" stroke="black" stroke-width="12.4688"/>
<path d="M190.719 25.5865C178.25 25.5865 177.594 13.118 178.578 6.88358C219.266 1.5242 306.875 0.649028 309.5 11.149C312.145 21.7308 303.266 24.9302 296.703 25.5865H190.719Z" fill="black"/>
<rect x="213.688" y="16.7272" width="66.2812" height="1.96875" fill="white"/>
<circle cx="287.516" cy="17.7115" r="1.64062" fill="white"/>
<path d="M247.5 153.5C251.478 153.5 255.294 155.08 258.107 157.893C260.92 160.706 262.5 164.522 262.5 168.5V176H271.875C273.367 176 274.798 176.593 275.852 177.648C276.907 178.702 277.5 180.133 277.5 181.625V187.25C276.304 187.25 275.111 187.662 274.14 188.484L273.739 188.859C270.694 192.027 267.529 193.501 264 193.501C261.064 193.501 258.75 195.912 258.75 198.811V208.19C258.75 217.092 262.215 224.015 268.8 228.507L223.125 228.5C221.633 228.5 220.202 227.907 219.148 226.852C218.093 225.798 217.5 224.367 217.5 222.875V181.625C217.5 180.133 218.093 178.702 219.148 177.648C220.202 176.593 221.633 176 223.125 176H232.5V168.5C232.5 164.522 234.08 160.706 236.893 157.893C239.706 155.08 243.522 153.5 247.5 153.5ZM278.565 191.457C282.285 195.342 286.406 197.251 291 197.251C291.724 197.251 292.331 197.787 292.47 198.496L292.5 198.811V208.19C292.5 218.247 287.576 225.087 277.976 228.421C277.669 228.528 277.335 228.528 277.028 228.421C267.743 225.196 262.834 218.701 262.515 209.184L262.5 208.194V198.819C262.5 197.956 263.175 197.255 264 197.255C268.586 197.255 272.711 195.342 276.443 191.461C276.579 191.317 276.743 191.201 276.926 191.123C277.108 191.044 277.305 191.003 277.504 191.003C277.703 191.003 277.899 191.044 278.082 191.123C278.264 191.201 278.429 191.317 278.565 191.461V191.457ZM247.5 196.625C246.008 196.625 244.577 197.218 243.523 198.273C242.468 199.327 241.875 200.758 241.875 202.25C241.875 203.742 242.468 205.173 243.523 206.227C244.577 207.282 246.008 207.875 247.5 207.875C248.992 207.875 250.423 207.282 251.477 206.227C252.532 205.173 253.125 203.742 253.125 202.25C253.125 200.758 252.532 199.327 251.477 198.273C250.423 197.218 248.992 196.625 247.5 196.625ZM247.5 161C245.511 161 243.603 161.79 242.197 163.197C240.79 164.603 240 166.511 240 168.5V176H255V168.5C255 166.511 254.21 164.603 252.803 163.197C251.397 161.79 249.489 161 247.5 161Z" fill="black"/>
<rect x="174" y="279" width="145" height="20" rx="5" fill="white"/>
<rect x="174" y="249" width="145" height="20" rx="5" fill="white"/>
<rect x="210" y="313" width="78" height="19" fill="#FFB800"/>
<defs>
<linearGradient id="paint0_linear" x1="245.5" y1="358.5" x2="245.5" y2="402.5" gradientUnits="userSpaceOnUse">
<stop offset="0.168342"/>
<stop offset="1" stop-color="white" stop-opacity="0.04"/>
</linearGradient>
</defs>
</svg>
