<svg width="281" height="202" viewBox="0 0 281 202" fill="none" xmlns="http://www.w3.org/2000/svg">
<path d="M0 23H281V133C281 140.732 274.732 147 267 147H14C6.26802 147 0 140.732 0 133V23Z" fill="black"/>
<path d="M0 14C0 6.26801 6.26801 0 14 0H267C274.732 0 281 6.26801 281 14V23.2043H0V14Z" fill="#838383"/>
<circle cx="20.5" cy="12.5" r="6.5" fill="#DD5D5D"/>
<circle cx="40.5" cy="12.5" r="6.5" fill="#DDB95D"/>
<circle cx="60.5" cy="12.5" r="6.5" fill="#59B842"/>
<path d="M76.843 36.5914H58.8827V62.9194H76.843L81.39 49.5323L76.843 36.5914Z" fill="#404E98"/>
<path d="M4.547 62.9194V36.5914H58.8828L63.4297 50.4247L58.8828 62.9194H4.547Z" fill="#343434"/>
<path d="M91.774 50.05C91.774 49.03 91.978 48.142 92.386 47.386C92.794 46.618 93.358 46.024 94.078 45.604C94.81 45.184 95.644 44.974 96.58 44.974C97.792 44.974 98.788 45.268 99.568 45.856C100.36 46.444 100.882 47.26 101.134 48.304H99.37C99.202 47.704 98.872 47.23 98.38 46.882C97.9 46.534 97.3 46.36 96.58 46.36C95.644 46.36 94.888 46.684 94.312 47.332C93.736 47.968 93.448 48.874 93.448 50.05C93.448 51.238 93.736 52.156 94.312 52.804C94.888 53.452 95.644 53.776 96.58 53.776C97.3 53.776 97.9 53.608 98.38 53.272C98.86 52.936 99.19 52.456 99.37 51.832H101.134C100.87 52.84 100.342 53.65 99.55 54.262C98.758 54.862 97.768 55.162 96.58 55.162C95.644 55.162 94.81 54.952 94.078 54.532C93.358 54.112 92.794 53.518 92.386 52.75C91.978 51.982 91.774 51.082 91.774 50.05ZM102.708 50.032C102.708 49.024 102.912 48.142 103.32 47.386C103.728 46.618 104.286 46.024 104.994 45.604C105.714 45.184 106.512 44.974 107.388 44.974C108.252 44.974 109.002 45.16 109.638 45.532C110.274 45.904 110.748 46.372 111.06 46.936V45.136H112.716V55H111.06V53.164C110.736 53.74 110.25 54.22 109.602 54.604C108.966 54.976 108.222 55.162 107.37 55.162C106.494 55.162 105.702 54.946 104.994 54.514C104.286 54.082 103.728 53.476 103.32 52.696C102.912 51.916 102.708 51.028 102.708 50.032ZM111.06 50.05C111.06 49.306 110.91 48.658 110.61 48.106C110.31 47.554 109.902 47.134 109.386 46.846C108.882 46.546 108.324 46.396 107.712 46.396C107.1 46.396 106.542 46.54 106.038 46.828C105.534 47.116 105.132 47.536 104.832 48.088C104.532 48.64 104.382 49.288 104.382 50.032C104.382 50.788 104.532 51.448 104.832 52.012C105.132 52.564 105.534 52.99 106.038 53.29C106.542 53.578 107.1 53.722 107.712 53.722C108.324 53.722 108.882 53.578 109.386 53.29C109.902 52.99 110.31 52.564 110.61 52.012C110.91 51.448 111.06 50.794 111.06 50.05ZM117.482 46.486V52.3C117.482 52.78 117.584 53.122 117.788 53.326C117.992 53.518 118.346 53.614 118.85 53.614H120.056V55H118.58C117.668 55 116.984 54.79 116.528 54.37C116.072 53.95 115.844 53.26 115.844 52.3V46.486H114.566V45.136H115.844V42.652H117.482V45.136H120.056V46.486H117.482ZM130.331 55.162C129.575 55.162 128.897 55.036 128.297 54.784C127.697 54.52 127.223 54.16 126.875 53.704C126.527 53.236 126.335 52.702 126.299 52.102H127.991C128.039 52.594 128.267 52.996 128.675 53.308C129.095 53.62 129.641 53.776 130.313 53.776C130.937 53.776 131.429 53.638 131.789 53.362C132.149 53.086 132.329 52.738 132.329 52.318C132.329 51.886 132.137 51.568 131.753 51.364C131.369 51.148 130.775 50.938 129.971 50.734C129.239 50.542 128.639 50.35 128.171 50.158C127.715 49.954 127.319 49.66 126.983 49.276C126.659 48.88 126.497 48.364 126.497 47.728C126.497 47.224 126.647 46.762 126.947 46.342C127.247 45.922 127.673 45.592 128.225 45.352C128.777 45.1 129.407 44.974 130.115 44.974C131.207 44.974 132.089 45.25 132.761 45.802C133.433 46.354 133.793 47.11 133.841 48.07H132.203C132.167 47.554 131.957 47.14 131.573 46.828C131.201 46.516 130.697 46.36 130.061 46.36C129.473 46.36 129.005 46.486 128.657 46.738C128.309 46.99 128.135 47.32 128.135 47.728C128.135 48.052 128.237 48.322 128.441 48.538C128.657 48.742 128.921 48.91 129.233 49.042C129.557 49.162 130.001 49.3 130.565 49.456C131.273 49.648 131.849 49.84 132.293 50.032C132.737 50.212 133.115 50.488 133.427 50.86C133.751 51.232 133.919 51.718 133.931 52.318C133.931 52.858 133.781 53.344 133.481 53.776C133.181 54.208 132.755 54.55 132.203 54.802C131.663 55.042 131.039 55.162 130.331 55.162ZM135.631 50.05C135.631 49.03 135.835 48.142 136.243 47.386C136.651 46.618 137.215 46.024 137.935 45.604C138.667 45.184 139.501 44.974 140.437 44.974C141.649 44.974 142.645 45.268 143.425 45.856C144.217 46.444 144.739 47.26 144.991 48.304H143.227C143.059 47.704 142.729 47.23 142.237 46.882C141.757 46.534 141.157 46.36 140.437 46.36C139.501 46.36 138.745 46.684 138.169 47.332C137.593 47.968 137.305 48.874 137.305 50.05C137.305 51.238 137.593 52.156 138.169 52.804C138.745 53.452 139.501 53.776 140.437 53.776C141.157 53.776 141.757 53.608 142.237 53.272C142.717 52.936 143.047 52.456 143.227 51.832H144.991C144.727 52.84 144.199 53.65 143.407 54.262C142.615 54.862 141.625 55.162 140.437 55.162C139.501 55.162 138.667 54.952 137.935 54.532C137.215 54.112 136.651 53.518 136.243 52.75C135.835 51.982 135.631 51.082 135.631 50.05ZM151.479 55.162C150.555 55.162 149.715 54.952 148.959 54.532C148.215 54.112 147.627 53.518 147.195 52.75C146.775 51.97 146.565 51.07 146.565 50.05C146.565 49.042 146.781 48.154 147.213 47.386C147.657 46.606 148.257 46.012 149.013 45.604C149.769 45.184 150.615 44.974 151.551 44.974C152.487 44.974 153.333 45.184 154.089 45.604C154.845 46.012 155.439 46.6 155.871 47.368C156.315 48.136 156.537 49.03 156.537 50.05C156.537 51.07 156.309 51.97 155.853 52.75C155.409 53.518 154.803 54.112 154.035 54.532C153.267 54.952 152.415 55.162 151.479 55.162ZM151.479 53.722C152.067 53.722 152.619 53.584 153.135 53.308C153.651 53.032 154.065 52.618 154.377 52.066C154.701 51.514 154.863 50.842 154.863 50.05C154.863 49.258 154.707 48.586 154.395 48.034C154.083 47.482 153.675 47.074 153.171 46.81C152.667 46.534 152.121 46.396 151.533 46.396C150.933 46.396 150.381 46.534 149.877 46.81C149.385 47.074 148.989 47.482 148.689 48.034C148.389 48.586 148.239 49.258 148.239 50.05C148.239 50.854 148.383 51.532 148.671 52.084C148.971 52.636 149.367 53.05 149.859 53.326C150.351 53.59 150.891 53.722 151.479 53.722ZM160.329 46.954C160.653 46.39 161.133 45.922 161.769 45.55C162.417 45.166 163.167 44.974 164.019 44.974C164.895 44.974 165.687 45.184 166.395 45.604C167.115 46.024 167.679 46.618 168.087 47.386C168.495 48.142 168.699 49.024 168.699 50.032C168.699 51.028 168.495 51.916 168.087 52.696C167.679 53.476 167.115 54.082 166.395 54.514C165.687 54.946 164.895 55.162 164.019 55.162C163.179 55.162 162.435 54.976 161.787 54.604C161.151 54.22 160.665 53.746 160.329 53.182V59.68H158.691V45.136H160.329V46.954ZM167.025 50.032C167.025 49.288 166.875 48.64 166.575 48.088C166.275 47.536 165.867 47.116 165.351 46.828C164.847 46.54 164.289 46.396 163.677 46.396C163.077 46.396 162.519 46.546 162.003 46.846C161.499 47.134 161.091 47.56 160.779 48.124C160.479 48.676 160.329 49.318 160.329 50.05C160.329 50.794 160.479 51.448 160.779 52.012C161.091 52.564 161.499 52.99 162.003 53.29C162.519 53.578 163.077 53.722 163.677 53.722C164.289 53.722 164.847 53.578 165.351 53.29C165.867 52.99 166.275 52.564 166.575 52.012C166.875 51.448 167.025 50.788 167.025 50.032ZM179.855 49.69C179.855 50.002 179.837 50.332 179.801 50.68H171.917C171.977 51.652 172.307 52.414 172.907 52.966C173.519 53.506 174.257 53.776 175.121 53.776C175.829 53.776 176.417 53.614 176.885 53.29C177.365 52.954 177.701 52.51 177.893 51.958H179.657C179.393 52.906 178.865 53.68 178.073 54.28C177.281 54.868 176.297 55.162 175.121 55.162C174.185 55.162 173.345 54.952 172.601 54.532C171.869 54.112 171.293 53.518 170.873 52.75C170.453 51.97 170.243 51.07 170.243 50.05C170.243 49.03 170.447 48.136 170.855 47.368C171.263 46.6 171.833 46.012 172.565 45.604C173.309 45.184 174.161 44.974 175.121 44.974C176.057 44.974 176.885 45.178 177.605 45.586C178.325 45.994 178.877 46.558 179.261 47.278C179.657 47.986 179.855 48.79 179.855 49.69ZM178.163 49.348C178.163 48.724 178.025 48.19 177.749 47.746C177.473 47.29 177.095 46.948 176.615 46.72C176.147 46.48 175.625 46.36 175.049 46.36C174.221 46.36 173.513 46.624 172.925 47.152C172.349 47.68 172.019 48.412 171.935 49.348H178.163ZM182.539 55.108C182.227 55.108 181.963 55 181.747 54.784C181.531 54.568 181.423 54.304 181.423 53.992C181.423 53.68 181.531 53.416 181.747 53.2C181.963 52.984 182.227 52.876 182.539 52.876C182.839 52.876 183.091 52.984 183.295 53.2C183.511 53.416 183.619 53.68 183.619 53.992C183.619 54.304 183.511 54.568 183.295 54.784C183.091 55 182.839 55.108 182.539 55.108ZM187.794 46.486V52.3C187.794 52.78 187.896 53.122 188.1 53.326C188.304 53.518 188.658 53.614 189.162 53.614H190.368V55H188.892C187.98 55 187.296 54.79 186.84 54.37C186.384 53.95 186.156 53.26 186.156 52.3V46.486H184.878V45.136H186.156V42.652H187.794V45.136H190.368V46.486H187.794ZM197.501 55L195.161 51.328L192.911 55H191.201L194.387 50.104L191.201 45.136H193.055L195.395 48.79L197.627 45.136H199.337L196.169 50.014L199.355 55H197.501ZM202.964 46.486V52.3C202.964 52.78 203.066 53.122 203.27 53.326C203.474 53.518 203.828 53.614 204.332 53.614H205.538V55H204.062C203.15 55 202.466 54.79 202.01 54.37C201.554 53.95 201.326 53.26 201.326 52.3V46.486H200.048V45.136H201.326V42.652H202.964V45.136H205.538V46.486H202.964Z" fill="#EFEFEF"/>
<g clip-path="url(#clip0)">
<path d="M190.307 160.187C190.307 160.187 192.472 167.22 189.268 184.832C188.695 187.992 187.85 191.221 187.421 193.866C182.004 193.866 181.714 200.039 182.864 200.039H189.32C193.443 200.039 198.481 189.759 201.204 175.493C203.926 161.226 190.307 160.187 190.307 160.187ZM230.52 171.601C230.52 171.601 237.525 175.363 237.266 184.185C237.165 187.672 236.499 190.632 236.172 193.509C230.523 193.509 230.502 199.629 232.148 199.629H237.871C240.717 199.629 247.124 189.892 248.289 177.179C249.458 164.47 230.52 171.601 230.52 171.601Z" fill="#F18F26"/>
<path d="M269 117.045C269 101.869 256.232 94.0833 241.25 94.0833C240.432 94.0833 239.648 94.4082 239.07 94.9864C238.492 95.5647 238.167 96.3489 238.167 97.1667C238.167 97.9844 238.492 98.7687 239.07 99.3469C239.648 99.9252 240.432 100.25 241.25 100.25C246.812 100.25 261.961 103.13 261.961 117.045C261.961 125.928 257.129 133.886 250.337 135.489C249.831 135.264 249.273 135.169 248.767 134.897C226.447 122.82 207.275 137.679 201.82 134.003C196.418 130.359 200.158 123.967 193.113 117.837C192.096 112.161 189.805 104.033 187.582 104.033C185.889 104.033 183.681 109.66 182.217 115.306C180.394 111.048 178.014 106.808 176.482 106.808C174.508 106.808 172.541 113.817 171.567 119.866C166.387 123.403 162.607 128.527 162.607 134.558C162.607 142.883 175.094 144.909 179.257 145.076C183.419 145.242 188.577 156.058 190.31 160.714C194.14 174.179 196.634 187.536 198.629 195.195C193.545 195.195 193.067 201.704 194.473 201.704C196.671 201.704 200.495 201.695 201.333 201.704C205.591 201.747 207.58 187.194 207.58 174.42C207.58 173.766 207.546 172.486 207.546 172.486C207.546 172.486 213.497 174.043 226.163 171.845C233.699 170.538 241.672 174.463 243.88 181.598C245.505 186.852 248.194 191.788 249.64 195.423C244.74 195.423 244.876 201.704 246.297 201.704C248.724 201.704 251.851 201.747 253.028 201.704C257.555 201.534 255.011 178.351 256.204 170.572C257.397 162.792 260.111 153.373 255.498 143.448C265.476 137.978 269 126.474 269 117.045Z" fill="#FFCC4E"/>
<path d="M176.481 130.06C178.014 130.06 179.256 128.817 179.256 127.285C179.256 125.752 178.014 124.51 176.481 124.51C174.949 124.51 173.706 125.752 173.706 127.285C173.706 128.817 174.949 130.06 176.481 130.06Z" fill="#292F33"/>
<path d="M167.201 130.652C165.113 131.956 165.113 136.131 164.071 136.131C163.029 136.131 160.941 133.676 160.941 130.652C160.938 127.627 169.766 129.048 167.201 130.652Z" fill="#E75A70"/>
<path d="M178.282 135.224C178.156 135.304 178.005 135.335 177.844 135.304C177.789 135.292 173.071 134.561 169.997 135.755C169.599 135.909 168.946 135.684 168.724 135.166C168.502 134.648 168.795 134.04 169.192 133.886C173.632 132.132 178.002 133.165 178.239 133.214C178.668 133.303 178.84 133.8 178.819 134.361C178.806 134.712 178.498 135.085 178.282 135.224ZM176.827 142.436C176.752 142.45 176.674 142.449 176.6 142.432C176.525 142.416 176.454 142.385 176.392 142.341C176.346 142.31 172.288 139.781 168.986 139.71C168.56 139.701 168.045 139.236 168.045 138.659C168.045 138.086 168.554 137.626 168.983 137.632C173.768 137.706 177.382 140.38 177.582 140.521C177.943 140.774 177.903 141.308 177.665 141.829C177.514 142.159 177.083 142.39 176.827 142.436Z" fill="#FEE7B8"/>
<path d="M182.217 115.3C182.217 115.3 183.364 115.179 184.865 115.401C185.534 113.983 186.669 112.667 186.669 112.667C186.669 112.667 187.535 114.726 187.859 116.302C187.936 116.672 188.531 116.663 188.852 116.885C188.852 116.885 188.969 106.207 186.191 105.057C186.194 105.051 183.863 108.523 182.217 115.3ZM171.564 119.86C171.564 119.86 172.748 119.037 174.286 118.09C174.955 116.166 176.038 113.98 176.038 113.98C176.038 113.98 176.984 115.836 177.101 116.478C177.749 116.126 177.749 116.151 178.344 115.892C178.344 115.892 177.992 108.843 174.955 108.1C174.955 108.1 172.698 112.33 171.564 119.86Z" fill="#F18F26"/>
<path d="M214.887 163.902C206.72 165.66 207.549 172.48 207.549 172.48C207.549 172.48 213.5 174.037 226.166 171.839C229.405 171.298 232.731 171.701 235.746 173.001C230.791 163.606 222.442 162.274 214.887 163.902Z" fill="#FFDD99"/>
<path d="M203.282 134.503C204.75 136.587 210.673 141.804 211.746 141.16C212.788 140.534 213.565 134.823 212.8 132.816C208.702 133.923 205.446 134.845 203.282 134.503ZM224.939 142.794C226.86 143.219 229.586 133.609 229.287 130.081C224.819 130.134 220.715 130.871 217.061 131.737C218.094 135.067 223.083 142.381 224.939 142.794ZM233.039 130.208C233.169 132.437 236.067 138.234 237.001 138.647C237.948 139.069 242.197 134.58 242.755 132.292C239.619 131.183 236.354 130.483 233.039 130.208Z" fill="#F18F26"/>
</g>
<defs>
<clipPath id="clip0">
<rect width="111" height="111" fill="white" transform="translate(158 91)"/>
</clipPath>
</defs>
</svg>
