<svg width="609" height="329" viewBox="0 0 609 329" fill="none" xmlns="http://www.w3.org/2000/svg">
<path d="M0 26H609V265C609 272.732 602.732 279 595 279H14C6.26801 279 0 272.732 0 265V26Z" fill="black"/>
<path d="M0 14C0 6.26801 6.26801 0 14 0H595C602.732 0 609 6.26801 609 14V26H0V14Z" fill="#838383"/>
<circle cx="20.5" cy="12.5" r="6.5" fill="#DD5D5D"/>
<circle cx="40.5" cy="12.5" r="6.5" fill="#DDB95D"/>
<circle cx="60.5" cy="12.5" r="6.5" fill="#59B842"/>
<path d="M166.539 41H127.614V70.5H166.539L176.393 55.5L166.539 41Z" fill="#404E98"/>
<path d="M9.85437 70.5V41H127.614L137.468 56.5L127.614 70.5H9.85437Z" fill="#343434"/>
<path d="M198.119 56.4C198.119 55.04 198.391 53.856 198.935 52.848C199.479 51.824 200.231 51.032 201.191 50.472C202.167 49.912 203.279 49.632 204.527 49.632C206.143 49.632 207.471 50.024 208.511 50.808C209.567 51.592 210.263 52.68 210.599 54.072H208.247C208.023 53.272 207.583 52.64 206.927 52.176C206.287 51.712 205.487 51.48 204.527 51.48C203.279 51.48 202.271 51.912 201.503 52.776C200.735 53.624 200.351 54.832 200.351 56.4C200.351 57.984 200.735 59.208 201.503 60.072C202.271 60.936 203.279 61.368 204.527 61.368C205.487 61.368 206.287 61.144 206.927 60.696C207.567 60.248 208.007 59.608 208.247 58.776H210.599C210.247 60.12 209.543 61.2 208.487 62.016C207.431 62.816 206.111 63.216 204.527 63.216C203.279 63.216 202.167 62.936 201.191 62.376C200.231 61.816 199.479 61.024 198.935 60C198.391 58.976 198.119 57.776 198.119 56.4ZM212.697 56.376C212.697 55.032 212.969 53.856 213.513 52.848C214.057 51.824 214.801 51.032 215.745 50.472C216.705 49.912 217.769 49.632 218.937 49.632C220.089 49.632 221.089 49.88 221.937 50.376C222.785 50.872 223.417 51.496 223.833 52.248V49.848H226.041V63H223.833V60.552C223.401 61.32 222.753 61.96 221.889 62.472C221.041 62.968 220.049 63.216 218.913 63.216C217.745 63.216 216.689 62.928 215.745 62.352C214.801 61.776 214.057 60.968 213.513 59.928C212.969 58.888 212.697 57.704 212.697 56.376ZM223.833 56.4C223.833 55.408 223.633 54.544 223.233 53.808C222.833 53.072 222.289 52.512 221.601 52.128C220.929 51.728 220.185 51.528 219.369 51.528C218.553 51.528 217.809 51.72 217.137 52.104C216.465 52.488 215.929 53.048 215.529 53.784C215.129 54.52 214.929 55.384 214.929 56.376C214.929 57.384 215.129 58.264 215.529 59.016C215.929 59.752 216.465 60.32 217.137 60.72C217.809 61.104 218.553 61.296 219.369 61.296C220.185 61.296 220.929 61.104 221.601 60.72C222.289 60.32 222.833 59.752 223.233 59.016C223.633 58.264 223.833 57.392 223.833 56.4ZM232.396 51.648V59.4C232.396 60.04 232.532 60.496 232.804 60.768C233.076 61.024 233.548 61.152 234.22 61.152H235.828V63H233.86C232.644 63 231.732 62.72 231.124 62.16C230.516 61.6 230.212 60.68 230.212 59.4V51.648H228.508V49.848H230.212V46.536H232.396V49.848H235.828V51.648H232.396ZM249.529 63.216C248.521 63.216 247.617 63.048 246.817 62.712C246.017 62.36 245.385 61.88 244.921 61.272C244.457 60.648 244.201 59.936 244.153 59.136H246.409C246.473 59.792 246.777 60.328 247.321 60.744C247.881 61.16 248.609 61.368 249.505 61.368C250.337 61.368 250.993 61.184 251.473 60.816C251.953 60.448 252.193 59.984 252.193 59.424C252.193 58.848 251.937 58.424 251.425 58.152C250.913 57.864 250.121 57.584 249.049 57.312C248.073 57.056 247.273 56.8 246.649 56.544C246.041 56.272 245.513 55.88 245.065 55.368C244.633 54.84 244.417 54.152 244.417 53.304C244.417 52.632 244.617 52.016 245.017 51.456C245.417 50.896 245.985 50.456 246.721 50.136C247.457 49.8 248.297 49.632 249.241 49.632C250.697 49.632 251.873 50 252.769 50.736C253.665 51.472 254.145 52.48 254.209 53.76H252.025C251.977 53.072 251.697 52.52 251.185 52.104C250.689 51.688 250.017 51.48 249.169 51.48C248.385 51.48 247.761 51.648 247.297 51.984C246.833 52.32 246.601 52.76 246.601 53.304C246.601 53.736 246.737 54.096 247.009 54.384C247.297 54.656 247.649 54.88 248.065 55.056C248.497 55.216 249.089 55.4 249.841 55.608C250.785 55.864 251.553 56.12 252.145 56.376C252.737 56.616 253.241 56.984 253.657 57.48C254.089 57.976 254.313 58.624 254.329 59.424C254.329 60.144 254.129 60.792 253.729 61.368C253.329 61.944 252.761 62.4 252.025 62.736C251.305 63.056 250.473 63.216 249.529 63.216ZM256.596 56.4C256.596 55.04 256.868 53.856 257.412 52.848C257.956 51.824 258.708 51.032 259.668 50.472C260.644 49.912 261.756 49.632 263.004 49.632C264.62 49.632 265.948 50.024 266.988 50.808C268.044 51.592 268.74 52.68 269.076 54.072H266.724C266.5 53.272 266.06 52.64 265.404 52.176C264.764 51.712 263.964 51.48 263.004 51.48C261.756 51.48 260.748 51.912 259.98 52.776C259.212 53.624 258.828 54.832 258.828 56.4C258.828 57.984 259.212 59.208 259.98 60.072C260.748 60.936 261.756 61.368 263.004 61.368C263.964 61.368 264.764 61.144 265.404 60.696C266.044 60.248 266.484 59.608 266.724 58.776H269.076C268.724 60.12 268.02 61.2 266.964 62.016C265.908 62.816 264.588 63.216 263.004 63.216C261.756 63.216 260.644 62.936 259.668 62.376C258.708 61.816 257.956 61.024 257.412 60C256.868 58.976 256.596 57.776 256.596 56.4ZM277.726 63.216C276.494 63.216 275.374 62.936 274.366 62.376C273.374 61.816 272.59 61.024 272.014 60C271.454 58.96 271.174 57.76 271.174 56.4C271.174 55.056 271.462 53.872 272.038 52.848C272.63 51.808 273.43 51.016 274.438 50.472C275.446 49.912 276.574 49.632 277.822 49.632C279.07 49.632 280.198 49.912 281.206 50.472C282.214 51.016 283.006 51.8 283.582 52.824C284.174 53.848 284.47 55.04 284.47 56.4C284.47 57.76 284.166 58.96 283.558 60C282.966 61.024 282.158 61.816 281.134 62.376C280.11 62.936 278.974 63.216 277.726 63.216ZM277.726 61.296C278.51 61.296 279.246 61.112 279.934 60.744C280.622 60.376 281.174 59.824 281.59 59.088C282.022 58.352 282.238 57.456 282.238 56.4C282.238 55.344 282.03 54.448 281.614 53.712C281.198 52.976 280.654 52.432 279.982 52.08C279.31 51.712 278.582 51.528 277.798 51.528C276.998 51.528 276.262 51.712 275.59 52.08C274.934 52.432 274.406 52.976 274.006 53.712C273.606 54.448 273.406 55.344 273.406 56.4C273.406 57.472 273.598 58.376 273.982 59.112C274.382 59.848 274.91 60.4 275.566 60.768C276.222 61.12 276.942 61.296 277.726 61.296ZM289.526 52.272C289.958 51.52 290.598 50.896 291.446 50.4C292.31 49.888 293.31 49.632 294.446 49.632C295.614 49.632 296.67 49.912 297.614 50.472C298.574 51.032 299.326 51.824 299.87 52.848C300.414 53.856 300.686 55.032 300.686 56.376C300.686 57.704 300.414 58.888 299.87 59.928C299.326 60.968 298.574 61.776 297.614 62.352C296.67 62.928 295.614 63.216 294.446 63.216C293.326 63.216 292.334 62.968 291.47 62.472C290.622 61.96 289.974 61.328 289.526 60.576V69.24H287.342V49.848H289.526V52.272ZM298.454 56.376C298.454 55.384 298.254 54.52 297.854 53.784C297.454 53.048 296.91 52.488 296.222 52.104C295.55 51.72 294.806 51.528 293.99 51.528C293.19 51.528 292.446 51.728 291.758 52.128C291.086 52.512 290.542 53.08 290.126 53.832C289.726 54.568 289.526 55.424 289.526 56.4C289.526 57.392 289.726 58.264 290.126 59.016C290.542 59.752 291.086 60.32 291.758 60.72C292.446 61.104 293.19 61.296 293.99 61.296C294.806 61.296 295.55 61.104 296.222 60.72C296.91 60.32 297.454 59.752 297.854 59.016C298.254 58.264 298.454 57.384 298.454 56.376ZM315.56 55.92C315.56 56.336 315.536 56.776 315.488 57.24H304.976C305.056 58.536 305.496 59.552 306.296 60.288C307.112 61.008 308.096 61.368 309.248 61.368C310.192 61.368 310.976 61.152 311.6 60.72C312.24 60.272 312.688 59.68 312.944 58.944H315.296C314.944 60.208 314.24 61.24 313.184 62.04C312.128 62.824 310.816 63.216 309.248 63.216C308 63.216 306.88 62.936 305.888 62.376C304.912 61.816 304.144 61.024 303.584 60C303.024 58.96 302.744 57.76 302.744 56.4C302.744 55.04 303.016 53.848 303.56 52.824C304.104 51.8 304.864 51.016 305.84 50.472C306.832 49.912 307.968 49.632 309.248 49.632C310.496 49.632 311.6 49.904 312.56 50.448C313.52 50.992 314.256 51.744 314.768 52.704C315.296 53.648 315.56 54.72 315.56 55.92ZM313.304 55.464C313.304 54.632 313.12 53.92 312.752 53.328C312.384 52.72 311.88 52.264 311.24 51.96C310.616 51.64 309.92 51.48 309.152 51.48C308.048 51.48 307.104 51.832 306.32 52.536C305.552 53.24 305.112 54.216 305 55.464H313.304ZM319.139 63.144C318.723 63.144 318.371 63 318.083 62.712C317.795 62.424 317.651 62.072 317.651 61.656C317.651 61.24 317.795 60.888 318.083 60.6C318.371 60.312 318.723 60.168 319.139 60.168C319.539 60.168 319.875 60.312 320.147 60.6C320.435 60.888 320.579 61.24 320.579 61.656C320.579 62.072 320.435 62.424 320.147 62.712C319.875 63 319.539 63.144 319.139 63.144ZM326.146 51.648V59.4C326.146 60.04 326.282 60.496 326.554 60.768C326.826 61.024 327.298 61.152 327.97 61.152H329.578V63H327.61C326.394 63 325.482 62.72 324.874 62.16C324.266 61.6 323.962 60.68 323.962 59.4V51.648H322.258V49.848H323.962V46.536H326.146V49.848H329.578V51.648H326.146ZM339.088 63L335.968 58.104L332.968 63H330.688L334.936 56.472L330.688 49.848H333.16L336.28 54.72L339.256 49.848H341.536L337.312 56.352L341.56 63H339.088ZM346.373 51.648V59.4C346.373 60.04 346.509 60.496 346.781 60.768C347.053 61.024 347.525 61.152 348.197 61.152H349.805V63H347.837C346.621 63 345.709 62.72 345.101 62.16C344.493 61.6 344.189 60.68 344.189 59.4V51.648H342.485V49.848H344.189V46.536H346.373V49.848H349.805V51.648H346.373Z" fill="#EFEFEF"/>
<g clip-path="url(#clip0)">
<path d="M459.278 269.106C459.278 269.106 462.378 279.18 457.789 304.408C456.968 308.935 455.758 313.559 455.144 317.349C447.384 317.349 446.969 326.191 448.616 326.191H457.864C463.77 326.191 470.986 311.466 474.886 291.03C478.786 270.594 459.278 269.106 459.278 269.106ZM516.88 285.456C516.88 285.456 526.915 290.844 526.544 303.481C526.398 308.476 525.444 312.716 524.976 316.837C516.884 316.837 516.853 325.604 519.212 325.604H527.409C531.486 325.604 540.664 311.656 542.333 293.446C544.007 275.24 516.88 285.456 516.88 285.456Z" fill="#F18F26"/>
<path d="M572 207.308C572 185.569 553.711 174.417 532.25 174.417C531.079 174.417 529.955 174.882 529.127 175.71C528.299 176.539 527.833 177.662 527.833 178.833C527.833 180.005 528.299 181.128 529.127 181.956C529.955 182.785 531.079 183.25 532.25 183.25C540.218 183.25 561.917 187.375 561.917 207.308C561.917 220.032 554.996 231.431 545.266 233.728C544.542 233.406 543.742 233.269 543.018 232.88C511.046 215.58 483.583 236.864 475.77 231.599C468.032 226.379 473.389 217.223 463.297 208.443C461.84 200.312 458.558 188.669 455.374 188.669C452.949 188.669 449.786 196.73 447.689 204.817C445.078 198.717 441.669 192.644 439.474 192.644C436.647 192.644 433.829 202.683 432.433 211.349C425.013 216.415 419.599 223.755 419.599 232.394C419.599 244.319 437.486 247.221 443.449 247.459C449.411 247.698 456.8 263.192 459.282 269.861C464.768 289.148 468.341 308.281 471.198 319.252C463.915 319.252 463.231 328.576 465.245 328.576C468.394 328.576 473.871 328.563 475.072 328.576C481.171 328.638 484.02 307.791 484.02 289.493C484.02 288.557 483.971 286.724 483.971 286.724C483.971 286.724 492.496 288.954 510.639 285.805C521.434 283.932 532.855 289.555 536.017 299.775C538.345 307.301 542.196 314.372 544.268 319.579C537.25 319.579 537.444 328.576 539.48 328.576C542.956 328.576 547.435 328.638 549.122 328.576C555.605 328.333 551.962 295.124 553.671 283.981C555.38 272.838 559.267 259.345 552.659 245.127C566.952 237.292 572 220.814 572 207.308Z" fill="#FFCC4E"/>
<path d="M439.473 225.95C441.669 225.95 443.448 224.171 443.448 221.975C443.448 219.78 441.669 218 439.473 218C437.278 218 435.498 219.78 435.498 221.975C435.498 224.171 437.278 225.95 439.473 225.95Z" fill="#292F33"/>
<path d="M426.179 226.798C423.189 228.667 423.189 234.647 421.696 234.647C420.204 234.647 417.213 231.131 417.213 226.798C417.209 222.466 429.854 224.502 426.179 226.798Z" fill="#E75A70"/>
<path d="M442.053 233.348C441.872 233.463 441.655 233.507 441.426 233.463C441.346 233.445 434.589 232.399 430.185 234.108C429.615 234.329 428.679 234.006 428.361 233.264C428.043 232.522 428.463 231.652 429.032 231.431C435.392 228.918 441.651 230.398 441.991 230.469C442.605 230.597 442.852 231.308 442.821 232.112C442.804 232.615 442.362 233.149 442.053 233.348ZM439.968 243.679C439.86 243.699 439.75 243.697 439.643 243.673C439.536 243.65 439.435 243.605 439.345 243.542C439.279 243.498 433.467 239.876 428.737 239.774C428.127 239.761 427.389 239.094 427.389 238.268C427.389 237.447 428.118 236.789 428.732 236.798C435.587 236.904 440.763 240.733 441.05 240.936C441.567 241.298 441.51 242.062 441.169 242.809C440.953 243.281 440.335 243.613 439.968 243.679Z" fill="#FEE7B8"/>
<path d="M447.689 204.808C447.689 204.808 449.332 204.635 451.482 204.953C452.441 202.922 454.066 201.036 454.066 201.036C454.066 201.036 455.307 203.986 455.771 206.243C455.881 206.773 456.734 206.76 457.193 207.078C457.193 207.078 457.361 191.783 453.382 190.136C453.386 190.127 450.047 195.1 447.689 204.808ZM432.429 211.34C432.429 211.34 434.125 210.161 436.329 208.805C437.287 206.049 438.838 202.917 438.838 202.917C438.838 202.917 440.193 205.576 440.361 206.495C441.289 205.991 441.289 206.027 442.141 205.656C442.141 205.656 441.638 195.559 437.287 194.495C437.287 194.495 434.054 200.554 432.429 211.34Z" fill="#F18F26"/>
<path d="M494.487 274.428C482.788 276.945 483.976 286.715 483.976 286.715C483.976 286.715 492.5 288.945 510.644 285.796C515.283 285.021 520.047 285.599 524.366 287.461C517.269 274.004 505.308 272.096 494.487 274.428Z" fill="#FFDD99"/>
<path d="M477.863 232.315C479.965 235.3 488.45 242.773 489.987 241.85C491.48 240.954 492.593 232.774 491.497 229.899C485.628 231.484 480.964 232.805 477.863 232.315ZM508.886 244.191C511.637 244.801 515.542 231.034 515.113 225.981C508.714 226.056 502.835 227.112 497.601 228.353C499.081 233.123 506.227 243.599 508.886 244.191ZM520.488 226.162C520.674 229.356 524.826 237.659 526.164 238.251C527.52 238.856 533.606 232.425 534.405 229.148C529.914 227.56 525.236 226.556 520.488 226.162Z" fill="#F18F26"/>
</g>
<defs>
<clipPath id="clip0">
<rect width="159" height="159" fill="white" transform="translate(413 170)"/>
</clipPath>
</defs>
</svg>
